<svg width="140" height="109" viewBox="0 0 140 109" fill="none" xmlns="http://www.w3.org/2000/svg">
<path fill-rule="evenodd" clip-rule="evenodd" d="M126.829 12.1622C127.032 12.5166 127.439 12.9032 127.506 13.4831C127.574 14.0309 127.202 14.4819 126.762 14.643C125.577 15.0296 126.355 12.5488 126.829 12.1622ZM39.5511 13.2898H40.262L49.5722 15.964L51.3665 15.8673L55.4968 15.7062L57.3927 15.6096L59.6609 15.5129L64.7053 15.384H67.346H69.2419L74.8957 15.4163L78.0104 15.4485L81.9375 15.5774L85.1876 15.674L89.6903 15.8995L90.4351 15.9962L99.7453 13.2576H100.524L90.469 16.2217L89.3518 16.1895L87.9299 16.0929L86.7788 15.9962L84.172 15.8995L81.2943 15.7707L78.9921 15.7384L76.1145 15.6418H72.7967H64.7392L61.5907 15.7384L58.713 15.7707L56.4447 15.8673L54.5827 15.9962L49.6737 16.2217L39.5511 13.2898ZM67.1768 6.33062C67.1768 6.33062 67.2106 6.33062 67.2106 6.2984C67.2445 6.2984 67.2783 6.26618 67.3122 6.23396C67.346 6.20175 67.3799 6.16953 67.4137 6.10509C67.4476 6.07287 67.4814 6.00843 67.4814 5.944C67.5153 5.87956 67.5153 5.81512 67.5153 5.71847C67.5153 5.62181 67.4815 5.52516 67.4476 5.4285C67.4137 5.33184 67.346 5.23519 67.2445 5.17075C67.1429 5.10631 67.0413 5.04188 66.9059 5.00966C66.7705 4.97744 66.6012 4.94522 66.432 4.94522L65.1455 4.97744C65.0777 4.97744 65.0439 4.97744 65.0439 5.00966C65.01 5.04188 65.01 5.07409 65.01 5.10631L65.0439 7.74824C65.0439 7.78046 65.0439 7.81268 65.0778 7.84489C65.1116 7.87711 65.1455 7.87711 65.1793 7.87711L66.5335 7.84489C66.7028 7.84489 66.8382 7.81268 66.9736 7.78046C67.109 7.74824 67.2106 7.6838 67.3122 7.61936C67.4137 7.55493 67.4815 7.45827 67.5492 7.36162C67.6169 7.26496 67.6169 7.13609 67.6169 7.00721C67.6169 6.91056 67.583 6.8139 67.583 6.74946C67.5492 6.68503 67.5153 6.62059 67.4814 6.55615C67.4476 6.49171 67.4137 6.4595 67.346 6.42728C67.3122 6.39506 67.2783 6.36284 67.2445 6.36284C67.2106 6.36284 67.1768 6.33062 67.1768 6.33062ZM66.5335 7.23274H65.7549L65.721 5.58959H66.432C66.4997 5.58959 66.5674 5.58959 66.6351 5.62181C66.7028 5.62181 66.7366 5.65403 66.7705 5.68625C66.8044 5.71847 66.8044 5.7829 66.8044 5.84734C66.8044 5.944 66.7705 6.00843 66.7028 6.04065C66.6351 6.07287 66.5335 6.10509 66.3981 6.10509H66.3304C66.2627 6.10509 66.2288 6.10509 66.2288 6.13731C66.195 6.16953 66.195 6.20175 66.195 6.23396V6.55615C66.195 6.58837 66.195 6.62059 66.2288 6.65281C66.2627 6.68503 66.2965 6.68503 66.3304 6.68503H66.432C66.4997 6.68503 66.5674 6.68502 66.6351 6.71724C66.7028 6.71724 66.7366 6.74946 66.7705 6.8139C66.8044 6.84612 66.8382 6.91056 66.8382 6.97499C66.8382 7.07165 66.8044 7.13609 66.7366 7.20052C66.7366 7.20052 66.6351 7.23274 66.5335 7.23274ZM70.5623 6.94277C70.5623 6.87834 70.5623 6.84612 70.5284 6.8139C70.4945 6.78168 70.4607 6.78168 70.4268 6.78168H69.9867C69.9529 6.78168 69.919 6.78168 69.919 6.8139C69.919 6.8139 69.8852 6.84612 69.8852 6.87834C69.8852 6.91055 69.8852 6.94277 69.8852 6.94277C69.8852 7.00721 69.8513 7.07165 69.7836 7.10387C69.7497 7.13609 69.682 7.1683 69.6143 7.20052C69.5466 7.23274 69.4789 7.23274 69.3773 7.23274C69.2758 7.23274 69.1742 7.20052 69.1065 7.1683C69.0388 7.13609 68.9711 7.07165 68.9372 7.00721C68.9034 6.94277 68.8695 6.84612 68.8695 6.78168V5.87956C68.8695 5.7829 68.9034 5.71847 68.9372 5.65403C68.9711 5.58959 69.0388 5.52516 69.1065 5.49294C69.1742 5.46072 69.2758 5.4285 69.3773 5.4285C69.445 5.4285 69.5466 5.4285 69.5805 5.46072C69.6482 5.46072 69.682 5.49294 69.7497 5.52516C69.7836 5.55737 69.8174 5.58959 69.8513 5.65403C69.8513 5.68625 69.8852 5.68625 69.8852 5.71847C69.8852 5.75069 69.919 5.75069 69.919 5.7829C69.919 5.7829 69.9529 5.81512 69.9867 5.81512H70.4268C70.4607 5.81512 70.4945 5.81512 70.5284 5.81512C70.5623 5.81512 70.5623 5.7829 70.5623 5.7829C70.5623 5.75069 70.5623 5.75069 70.5623 5.71847C70.5623 5.62181 70.5284 5.49294 70.4607 5.4285C70.4268 5.33184 70.3591 5.26741 70.2576 5.20297C70.1898 5.13853 70.0883 5.0741 69.9867 5.04188C69.8852 5.00966 69.7836 4.97744 69.682 4.94522C69.5805 4.913 69.445 4.913 69.3435 4.913C69.2419 4.913 69.1065 4.913 69.0049 4.94522C68.9034 4.97744 68.7679 5.00966 68.6664 5.07409C68.5648 5.13853 68.4632 5.20297 68.3617 5.26741C68.2601 5.33184 68.2263 5.4285 68.1585 5.55737C68.1247 5.65403 68.0908 5.7829 68.0908 5.91178V6.94277C68.0908 7.07165 68.1247 7.20052 68.1585 7.29718C68.1924 7.39383 68.2601 7.49049 68.3617 7.58715C68.4632 7.65158 68.531 7.71602 68.6664 7.78046C68.7679 7.84489 68.8695 7.87711 69.0049 7.90933C69.1065 7.94155 69.2419 7.94155 69.3435 7.94155C69.445 7.94155 69.5805 7.94155 69.682 7.90933C69.7836 7.87711 69.919 7.84489 70.0206 7.78046C70.1221 7.71602 70.2237 7.65158 70.2914 7.58715C70.3591 7.52271 70.4268 7.42605 70.4946 7.3294C70.5284 7.1683 70.5623 7.03943 70.5623 6.94277ZM73.3722 7.23274L71.8826 7.20052V6.62059L73.1352 6.65281C73.2029 6.65281 73.2368 6.65281 73.2368 6.62059C73.2707 6.58837 73.2707 6.55615 73.2707 6.52393V6.16953C73.2707 6.13731 73.2707 6.10509 73.2368 6.07287C73.2029 6.04065 73.1691 6.04065 73.1352 6.04065L71.8826 6.00843V5.52516L73.3045 5.55737C73.3722 5.55737 73.4061 5.55737 73.4061 5.52516C73.4399 5.49294 73.4399 5.46072 73.4399 5.4285V5.07409C73.4399 5.04188 73.4399 5.00966 73.4061 4.97744C73.3722 4.94522 73.3384 4.94522 73.3045 4.94522L71.3071 4.913C71.2394 4.913 71.2055 4.913 71.2055 4.94522C71.1716 4.97744 71.1717 5.00966 71.1717 5.04188L71.1378 7.6838C71.1378 7.71602 71.1378 7.74824 71.1717 7.78046C71.2055 7.81268 71.2394 7.81268 71.2732 7.81268L73.3384 7.84489C73.4061 7.84489 73.4399 7.84489 73.4399 7.81268C73.4738 7.78046 73.4738 7.74824 73.4738 7.71602V7.36162C73.4738 7.3294 73.4738 7.29718 73.4399 7.26496C73.4399 7.23274 73.4061 7.23274 73.3722 7.23274ZM55.1244 12.3233C55.1244 12.3233 55.1582 12.3233 55.1582 12.2911C55.1921 12.2588 55.1921 12.2588 55.2259 12.2266C55.2598 12.1944 55.2936 12.1622 55.2936 12.0977C55.3275 12.0333 55.3275 12.0011 55.3614 11.9367C55.3614 11.8722 55.3614 11.8078 55.3614 11.7111C55.3614 11.6145 55.3275 11.5178 55.2598 11.4212C55.1921 11.3245 55.1244 11.2601 55.0228 11.1956C54.9212 11.1312 54.8197 11.099 54.6504 11.0668C54.515 11.0345 54.3457 11.0345 54.1426 11.0668L52.8561 11.2278C52.7884 11.2278 52.7545 11.2601 52.7545 11.2601C52.7545 11.2923 52.7207 11.3245 52.7545 11.3567L53.0931 13.9664C53.0931 13.9986 53.0931 14.0309 53.1269 14.0631C53.1608 14.0953 53.1946 14.0953 53.2285 14.0953L54.5827 13.9342C54.752 13.902 54.8874 13.8698 55.0228 13.8376C55.1582 13.7731 55.2598 13.7087 55.3614 13.6442C55.4629 13.5476 55.5306 13.4509 55.5645 13.3543C55.5983 13.2576 55.6322 13.1287 55.5984 12.9677C55.5984 12.871 55.5645 12.8066 55.5306 12.7099C55.4968 12.6455 55.4629 12.581 55.3952 12.5488C55.3614 12.5166 55.2937 12.4522 55.2598 12.4522C55.2259 12.4199 55.1921 12.4199 55.1582 12.3877C55.1582 12.3233 55.1582 12.3233 55.1244 12.3233ZM54.5827 13.2576C54.6843 13.2576 54.7858 13.2254 54.8197 13.161C54.8874 13.0965 54.8874 13.0321 54.8874 12.9354C54.8874 12.871 54.8535 12.8066 54.8197 12.7743C54.7858 12.7421 54.7181 12.7099 54.6843 12.7099C54.6166 12.7099 54.5488 12.7099 54.4811 12.7099H54.3796C54.3119 12.7099 54.278 12.7099 54.278 12.6777C54.2441 12.6455 54.2441 12.6132 54.2441 12.581L54.2103 12.2588C54.2103 12.2266 54.2103 12.1944 54.2103 12.1622C54.2103 12.13 54.2441 12.13 54.3119 12.13H54.3796C54.515 12.13 54.6165 12.0655 54.6504 12.0333C54.7181 11.9689 54.7181 11.9044 54.7181 11.84C54.7181 11.7756 54.6843 11.7433 54.6504 11.7111C54.6165 11.6789 54.5827 11.6467 54.515 11.6467C54.4473 11.6467 54.3796 11.6467 54.3119 11.6467L53.6009 11.7433L53.804 13.3865L54.5827 13.2576ZM59.2547 10.4868L57.1218 10.6801C57.0541 10.6801 57.0203 10.7123 57.0203 10.7123C56.9864 10.7446 56.9864 10.7768 56.9864 10.809L57.0203 11.1634C57.0203 11.1956 57.0203 11.2278 57.0541 11.2601C57.088 11.2923 57.1218 11.2923 57.1557 11.2923L57.8666 11.2278L58.0698 13.3543C58.0698 13.4187 58.1036 13.4509 58.1036 13.4509C58.1375 13.4831 58.1713 13.4831 58.2052 13.4831L58.6453 13.4509C58.6792 13.4509 58.713 13.4509 58.7469 13.4187C58.7807 13.3865 58.7807 13.3543 58.7807 13.3221L58.5776 11.1956L59.2885 11.1312C59.3563 11.1312 59.3901 11.099 59.3901 11.099C59.424 11.0668 59.424 11.0345 59.424 11.0023L59.3901 10.6479C59.3901 10.6157 59.3901 10.5835 59.3562 10.5513C59.3562 10.4868 59.3224 10.4868 59.2547 10.4868ZM62.1324 11.6789C62.1324 11.6789 62.1662 11.6789 62.1662 11.6467C62.2001 11.6467 62.2339 11.6145 62.2339 11.5823C62.2678 11.55 62.3016 11.5178 62.3355 11.4534C62.3694 11.4212 62.3693 11.3567 62.4032 11.2923C62.4371 11.2278 62.4371 11.1634 62.4371 11.0668C62.4371 10.9701 62.4032 10.8734 62.3694 10.7768C62.3355 10.6801 62.2678 10.6157 62.1662 10.519C62.0647 10.4546 61.9631 10.3902 61.8277 10.3579C61.6922 10.3257 61.523 10.2935 61.3537 10.3257L60.0672 10.3902C59.9995 10.3902 59.9656 10.4224 59.9656 10.4224C59.9318 10.4546 59.9318 10.4868 59.9318 10.519L60.0672 13.161C60.0672 13.1932 60.0672 13.2254 60.1011 13.2576C60.1349 13.2898 60.1688 13.2898 60.2026 13.2898L61.5568 13.2254C61.7261 13.2254 61.8615 13.1932 61.9969 13.161C62.1324 13.1287 62.2339 13.0643 62.3355 12.9999C62.4371 12.9354 62.5048 12.8388 62.5386 12.7099C62.5725 12.6132 62.6063 12.4844 62.6063 12.3233C62.6063 12.2266 62.5725 12.13 62.5386 12.0655C62.5048 12.0011 62.4709 11.9367 62.4371 11.8722C62.4032 11.84 62.3355 11.7756 62.3016 11.7433C62.2678 11.7111 62.2339 11.6789 62.2001 11.6789C62.1324 11.6789 62.1324 11.6789 62.1324 11.6789ZM61.4891 12.581L60.7104 12.6132L60.6089 10.9701L61.3198 10.9379C61.3876 10.9379 61.4553 10.9379 61.523 10.9379C61.5907 10.9379 61.6245 10.9701 61.6584 11.0023C61.6922 11.0345 61.7261 11.099 61.7261 11.1634C61.7261 11.2601 61.6922 11.3245 61.6584 11.3567C61.5907 11.3889 61.4891 11.4212 61.3537 11.4534H61.286C61.2183 11.4534 61.1844 11.4856 61.1844 11.4856C61.1506 11.5178 61.1506 11.55 61.1506 11.5823L61.1844 11.9044C61.1844 11.9367 61.1844 11.9689 61.2183 12.0011C61.2521 12.0333 61.286 12.0333 61.3198 12.0333H61.4214C61.4891 12.0333 61.5568 12.0333 61.6245 12.0333C61.6922 12.0333 61.7261 12.0655 61.76 12.0977C61.7938 12.13 61.8277 12.1944 61.8277 12.2588C61.8277 12.3555 61.7938 12.4199 61.76 12.4844C61.6922 12.5488 61.6245 12.581 61.4891 12.581ZM65.484 11.0345C65.484 10.9057 65.4502 10.7768 65.3824 10.6801C65.3147 10.5835 65.247 10.4868 65.1793 10.4224C65.0777 10.3579 64.9762 10.2935 64.8746 10.2291C64.7731 10.1969 64.6376 10.1324 64.5361 10.1324C64.4345 10.1002 64.2991 10.1002 64.1975 10.1002C64.096 10.1002 63.9605 10.1324 63.859 10.1324C63.7574 10.1646 63.622 10.1969 63.5204 10.2613C63.4189 10.3257 63.3173 10.3902 63.2496 10.4546C63.1819 10.5513 63.1142 10.6479 63.0465 10.7446C63.0126 10.8412 62.9787 10.9701 62.9787 11.1312L63.0126 12.1622C63.0126 12.2911 63.0464 12.4199 63.1142 12.5166C63.1819 12.6132 63.2496 12.7099 63.3173 12.7743C63.4189 12.8388 63.4866 12.9032 63.622 12.9677C63.7235 12.9999 63.859 13.0643 63.9605 13.0643C64.0621 13.0965 64.1975 13.0965 64.2991 13.0965C64.4006 13.0965 64.5361 13.0643 64.6376 13.0643C64.7392 13.0321 64.8746 12.9999 64.9762 12.9354C65.0777 12.871 65.1793 12.8066 65.247 12.7421C65.3147 12.6455 65.3824 12.5488 65.4501 12.4522C65.484 12.3555 65.5179 12.2266 65.5179 12.0655L65.484 11.0345ZM64.773 12.0333C64.773 12.13 64.7731 12.1944 64.7053 12.2911C64.6715 12.3555 64.6038 12.4199 64.5361 12.4522C64.4684 12.4844 64.3668 12.5166 64.2652 12.5166C64.1637 12.5166 64.0621 12.5166 63.9944 12.4844C63.9267 12.4522 63.859 12.3877 63.8251 12.3233C63.7913 12.2588 63.7574 12.1944 63.7574 12.0977L63.7236 11.1956C63.7236 11.099 63.7235 11.0345 63.7913 10.9379C63.8251 10.8734 63.8928 10.809 63.9605 10.7768C64.0282 10.7446 64.1298 10.7123 64.2314 10.7123C64.3329 10.7123 64.4345 10.7123 64.5022 10.7446C64.5699 10.7768 64.6376 10.809 64.7053 10.9057C64.7392 10.9701 64.773 11.0345 64.773 11.1312V12.0333ZM66.1611 10.1002C66.1273 10.1002 66.0934 10.1002 66.0595 10.1324C66.0257 10.1646 66.0257 10.1969 66.0257 10.2291L66.0595 12.871C66.0595 12.9032 66.0595 12.9354 66.0934 12.9677C66.1273 12.9999 66.1611 12.9999 66.195 12.9999H66.6012C66.6351 12.9999 66.6689 12.9999 66.7028 12.9677C66.7366 12.9677 66.7366 12.9354 66.7705 12.9032C66.7705 12.871 66.8044 12.8388 66.8382 12.8388L67.7861 11.3245L67.82 12.871C67.82 12.9354 67.82 12.9677 67.8539 12.9677C67.8877 12.9999 67.9216 12.9999 67.9554 12.9999H68.4294C68.4632 12.9999 68.4971 12.9999 68.531 12.9677C68.5648 12.9354 68.5648 12.9032 68.5648 12.871L68.531 10.2291C68.531 10.1969 68.531 10.1646 68.4971 10.1324C68.4632 10.1002 68.4294 10.1002 68.3955 10.1002H67.9554C67.9216 10.1002 67.8877 10.1002 67.8539 10.1324C67.82 10.1324 67.82 10.1646 67.7861 10.1969C67.7861 10.2291 67.7523 10.2613 67.7184 10.2613L66.7705 11.7756L66.7366 10.2613C66.7366 10.1969 66.7366 10.1646 66.7028 10.1646C66.6689 10.1324 66.6351 10.1324 66.6012 10.1324L66.1611 10.1002ZM70.5961 11.4856L71.4425 10.1969C71.4425 10.1646 71.4425 10.1646 71.4425 10.1324C71.4425 10.1002 71.4425 10.1002 71.4086 10.068C71.4086 10.068 71.3748 10.0358 71.3409 10.0358H70.7992C70.7654 10.0358 70.7315 10.0358 70.7315 10.0358C70.6977 10.0358 70.6977 10.068 70.6638 10.068C70.6638 10.1002 70.63 10.1002 70.5961 10.1324L70.1221 10.8412L69.6482 10.1324C69.6143 10.1002 69.6143 10.068 69.5805 10.068C69.5466 10.0358 69.5466 10.0358 69.5127 10.0358C69.4789 10.0358 69.4789 10.0358 69.445 10.0358H68.9034C68.8695 10.0358 68.8695 10.0358 68.8356 10.068C68.8356 10.068 68.8018 10.1002 68.8018 10.1324C68.8018 10.1646 68.8018 10.1646 68.8018 10.1969L69.6482 11.4856L68.8356 12.8388C68.8356 12.871 68.8018 12.871 68.8018 12.9032C68.8018 12.9354 68.8018 12.9354 68.8356 12.9677C68.8356 12.9677 68.8695 12.9999 68.9034 12.9999H69.445C69.4789 12.9999 69.5127 12.9999 69.5466 12.9999C69.5805 12.9999 69.5805 12.9677 69.6143 12.9677C69.6482 12.9354 69.6482 12.9354 69.682 12.871L70.156 12.0977L70.63 12.871C70.6638 12.9032 70.6638 12.9354 70.6977 12.9677C70.7315 12.9999 70.7315 12.9999 70.7654 12.9999C70.7992 12.9999 70.7992 12.9999 70.8331 12.9999H71.3748C71.4086 12.9999 71.4086 12.9999 71.4425 12.9677C71.4425 12.9677 71.4763 12.9354 71.4763 12.9032C71.4763 12.871 71.4763 12.871 71.4425 12.8388L70.5961 11.4856ZM74.2863 10.1002L73.2368 10.068C73.1691 10.068 73.1352 10.068 73.1352 10.1002C73.1014 10.1324 73.1014 10.1646 73.1014 10.1969L72.9998 12.8388C72.9998 12.9032 72.9998 12.9354 73.0337 12.9354C73.0675 12.9677 73.1014 12.9677 73.1352 12.9677H73.6092C73.6431 12.9677 73.6769 12.9677 73.7108 12.9354C73.7446 12.9032 73.7446 12.871 73.7446 12.8388L73.7785 12.0977H74.2186C74.4894 12.0977 74.6926 12.0655 74.8957 12.0011C75.065 11.9367 75.2342 11.8078 75.302 11.6467C75.4035 11.4856 75.4374 11.3245 75.4712 11.1312C75.4712 10.9701 75.4712 10.8412 75.4035 10.7123C75.3697 10.5835 75.2681 10.4868 75.2004 10.3902C75.0988 10.2935 74.9634 10.2291 74.828 10.1646C74.6587 10.1324 74.4894 10.1324 74.2863 10.1002ZM74.2186 11.55H73.7785L73.8123 10.7123H74.2524C74.3879 10.7123 74.4556 10.7446 74.5572 10.7768C74.6249 10.809 74.6926 10.8734 74.7264 10.9379C74.7603 11.0023 74.7603 11.0668 74.7603 11.1634C74.7603 11.2278 74.7264 11.2923 74.6926 11.3567C74.6587 11.4212 74.591 11.4534 74.5233 11.4856C74.4556 11.55 74.354 11.55 74.2186 11.55ZM78.4843 10.3257L77.9765 10.2935C77.9426 10.2935 77.9088 10.2935 77.8749 10.2935C77.8411 10.2935 77.8411 10.3257 77.8072 10.3257C77.8072 10.3579 77.7734 10.3579 77.7734 10.3902L77.4348 11.0023L77.1301 11.5823L76.8931 10.9701L76.5885 10.3257C76.5885 10.2935 76.5546 10.2613 76.5546 10.2613C76.5546 10.2291 76.5207 10.2291 76.4869 10.2291C76.453 10.2291 76.453 10.2291 76.4192 10.2291L75.8775 10.1969C75.8436 10.1969 75.8098 10.1969 75.8098 10.2291L75.7759 10.2613C75.7759 10.2613 75.7759 10.2935 75.7759 10.3257L76.69 12.3233L76.3176 12.9677C76.3176 12.9999 76.2838 12.9999 76.2838 13.0321C76.2838 13.0643 76.2838 13.0643 76.3176 13.0965C76.3176 13.0965 76.3515 13.1287 76.3853 13.1287L76.8931 13.161C76.927 13.161 76.9609 13.161 76.9947 13.161C77.0286 13.161 77.0286 13.161 77.0624 13.1287C77.0963 13.0965 77.0963 13.0965 77.1301 13.0643L78.6198 10.4868C78.6198 10.4546 78.6198 10.4546 78.6198 10.4224C78.6198 10.3902 78.6198 10.3902 78.5859 10.3579C78.552 10.3579 78.5182 10.3257 78.4843 10.3257ZM81.5313 10.5513L80.9219 10.519C80.888 10.519 80.8542 10.519 80.8203 10.519C80.7865 10.519 80.7865 10.519 80.7526 10.5513C80.7188 10.5513 80.7188 10.5835 80.6849 10.6157L79.6693 11.55L79.737 10.5835C79.737 10.519 79.737 10.4868 79.7031 10.4868C79.6693 10.4546 79.6354 10.4546 79.6015 10.4546L79.1276 10.4224C79.0937 10.4224 79.0599 10.4224 79.026 10.4546C78.9921 10.4868 78.9921 10.519 78.9921 10.5513L78.789 13.1932C78.789 13.2576 78.789 13.2898 78.8229 13.2898C78.8567 13.3221 78.8906 13.3221 78.9244 13.3221L79.3984 13.3543C79.4323 13.3543 79.4661 13.3543 79.5 13.3221C79.5338 13.2898 79.5338 13.2576 79.5338 13.2254L79.6015 12.4522L79.9062 12.1944C79.9401 12.2588 79.9739 12.3233 80.0417 12.4199C80.0755 12.4844 80.1432 12.581 80.1771 12.6777C80.2109 12.7743 80.2786 12.8388 80.3125 12.9032C80.3464 12.9677 80.3802 13.0321 80.4141 13.0965C80.4479 13.161 80.4818 13.1932 80.4818 13.2254C80.5156 13.2576 80.5156 13.2898 80.5156 13.2898C80.5495 13.3221 80.5833 13.3865 80.6172 13.3865C80.6511 13.4187 80.6849 13.4187 80.7526 13.4187L81.3282 13.4509C81.362 13.4509 81.3959 13.4509 81.3959 13.4187C81.3959 13.4187 81.4297 13.3865 81.4297 13.3543C81.4297 13.3221 81.4297 13.3221 81.4297 13.2898L80.5495 11.6789L81.6667 10.6801L81.7006 10.6479C81.7006 10.6157 81.7006 10.6157 81.7006 10.5835C81.5651 10.5835 81.5651 10.5513 81.5313 10.5513ZM84.3751 13.7087L83.6641 10.9701C83.6641 10.9379 83.6303 10.8734 83.5964 10.8734C83.5626 10.8412 83.5287 10.8412 83.4949 10.8412L83.0547 10.809C83.0209 10.809 82.9532 10.809 82.9193 10.8412C82.8855 10.8734 82.8516 10.9057 82.8516 10.9379L81.5313 13.4509C81.5313 13.4831 81.5313 13.4831 81.4974 13.5154C81.4974 13.5476 81.4974 13.5476 81.4974 13.5798C81.4974 13.5798 81.5313 13.612 81.5651 13.612L82.0391 13.6442C82.073 13.6442 82.1068 13.6442 82.1068 13.6442C82.1407 13.6442 82.1407 13.612 82.1745 13.612C82.1745 13.5798 82.2084 13.5798 82.2084 13.5476L82.3777 13.2254L83.4949 13.3543L83.5964 13.7087C83.5964 13.7409 83.6303 13.7731 83.6303 13.8053C83.6303 13.8376 83.6641 13.8376 83.6641 13.8376C83.698 13.8376 83.698 13.8376 83.7318 13.8698L84.2058 13.9342C84.2397 13.9342 84.2735 13.9342 84.2735 13.9342L84.3074 13.902C84.3751 13.7409 84.3751 13.7087 84.3751 13.7087ZM82.7162 12.5488L83.1563 11.6145L83.3933 12.6132L82.7162 12.5488ZM86.3048 12.6132L87.3205 11.4534C87.3205 11.4534 87.3543 11.4212 87.3543 11.3889C87.3543 11.3567 87.3543 11.3567 87.3543 11.3245C87.3543 11.3245 87.3205 11.2923 87.2866 11.2923L86.7449 11.2278C86.7111 11.2278 86.6772 11.2278 86.6772 11.2278C86.6434 11.2278 86.6434 11.2601 86.6095 11.2601C86.5757 11.2601 86.5757 11.2923 86.5418 11.3245L86.0001 11.9689L85.6616 11.1956C85.6616 11.1634 85.6277 11.1312 85.6277 11.099C85.6277 11.0668 85.5939 11.0668 85.5939 11.0668C85.56 11.0668 85.56 11.0345 85.5262 11.0345L84.9845 10.9701C84.9506 10.9701 84.9506 10.9701 84.9168 10.9701L84.8829 11.0023C84.8829 11.0345 84.8829 11.0345 84.8829 11.0668L85.5262 12.4522L84.5105 13.6765C84.5105 13.7087 84.4767 13.7087 84.4767 13.7409C84.4767 13.7731 84.4767 13.7731 84.4767 13.8053C84.4767 13.8376 84.5105 13.8376 84.5105 13.8376L85.0183 13.902C85.0522 13.902 85.0861 13.902 85.1199 13.902C85.1538 13.902 85.1538 13.902 85.1876 13.8698C85.2215 13.8698 85.2215 13.8376 85.2553 13.8053L85.8309 13.0965L86.1694 13.9342C86.1694 13.9664 86.2033 13.9986 86.2033 14.0309C86.2033 14.0631 86.2371 14.0631 86.271 14.0631C86.3048 14.0631 86.3048 14.0631 86.3387 14.0953L86.8465 14.1597C86.8804 14.1597 86.8804 14.1597 86.9142 14.1275C86.9142 14.1275 86.9481 14.0953 86.9481 14.0631C86.9481 14.0309 86.9481 14.0309 86.9481 13.9986L86.3048 12.6132ZM12.7718 12.1622C13.2457 12.5166 13.9905 15.0296 12.8733 14.643C12.3994 14.4819 12.027 13.9986 12.1285 13.4187C12.2301 12.871 12.5686 12.5166 12.7718 12.1622ZM106.415 10.3902C105.568 10.0035 104.824 7.45827 106.347 7.29718C107.295 7.20052 107.396 8.00599 107.261 8.77923C107.16 9.39139 106.923 10.1002 106.415 10.3902ZM33.1863 10.3902C32.7124 10.1002 32.4415 9.42361 32.34 8.77923C32.2045 8.00599 32.3061 7.20052 33.254 7.29718C34.7775 7.45827 33.9989 10.0035 33.1863 10.3902ZM36.7072 11.8722C37.0119 11.6145 38.4 11.2923 38.8063 11.1956C41.7855 10.2935 69.7497 2.17442 69.9867 2.1422C70.4607 2.10998 77.2655 4.23641 78.3489 4.52638C79.7031 4.88078 102.86 11.5823 103.232 11.8078C102.521 11.9367 99.7453 10.9701 98.9328 10.7446C94.43 9.48804 70.4268 2.3033 69.919 2.36773L61.5907 4.78413C58.8146 5.58959 56.1062 6.45949 53.3301 7.20052C51.5019 7.6838 37.2828 11.9689 36.7072 11.8722ZM34.6082 11.099C34.8452 10.7768 35.0145 10.6801 35.2176 10.4224C35.7932 9.77801 36.3687 8.97255 36.2333 7.97377C35.8947 5.65403 30.8165 5.17075 30.1394 7.58715C29.7331 9.10142 30.918 10.1969 31.3243 11.099C27.3294 11.0023 20.0167 7.13609 13.2796 9.9391C12.2301 10.3902 11.8915 9.39139 9.18313 9.64914C5.45908 9.97132 2.81839 12.5166 1.49804 14.7719C0.685523 16.1573 0.10999 17.7682 0.00842499 19.5725C-0.059285 20.9256 0.279264 23.8898 1.09178 24.663C1.59961 24.7274 2.64911 24.4375 3.02152 24.2764C2.98766 23.6964 2.5814 22.7299 2.51369 21.9244C1.80274 16.2217 7.21954 9.84245 10.9436 11.099C10.842 11.3567 10.6389 11.5823 10.4696 11.8722C8.74301 14.7075 10.5373 16.3506 13.2119 16.1573C16.0218 15.9318 16.5635 13.7409 14.7354 11.4212C14.5999 11.2278 14.3291 10.9701 14.2275 10.7768C14.8031 10.4546 16.9021 10.2291 17.6807 10.1969C21.4048 10.0035 24.621 11.2278 28.1081 11.9367C29.8008 12.2911 31.4936 12.2266 31.8321 12.3233C32.8816 12.6132 33.8634 12.9354 34.9468 13.2576L50.7232 17.8327C54.9551 19.0892 53.1269 18.767 57.8328 18.5415C62.0985 18.3482 65.6194 18.3804 69.8513 18.3159C75.302 18.2515 80.5495 18.5415 85.9324 18.7026C86.7449 18.7348 91.2138 17.2849 92.2972 16.995L108.04 12.4199C108.615 12.2588 109.326 12.3233 109.936 12.2588C110.511 12.1944 111.053 12.0977 111.628 11.9689C115.115 11.2278 118.332 10.0358 122.056 10.2291C122.834 10.2613 124.866 10.519 125.441 10.809C125.069 11.4212 123.748 12.4844 123.816 14.0309C123.918 16.7694 129.03 16.8661 129.775 14.5786C130.282 13.0643 128.962 11.7756 128.691 11.1634C131.637 10.1646 134.582 13.7731 135.53 15.3518C138.475 20.2168 136.613 23.4065 136.681 24.2119C136.986 24.4053 138.171 24.6952 138.645 24.6308C139.423 23.5676 139.762 20.8934 139.626 19.4114C139.119 13.5476 133.431 8.26374 127.405 10.0358C126.694 10.2613 126.863 10.2291 126.186 9.97132C119.517 7.29718 112.238 11.1312 108.311 11.1956C108.717 10.2935 109.902 9.19808 109.496 7.6838C109.191 6.55615 107.769 5.97622 106.279 6.10509C104.925 6.23396 103.571 6.94277 103.402 8.07042C103.232 9.19808 104.451 10.7123 104.959 11.0668C104.485 11.0345 103.3 10.6157 102.758 10.4546L74.2524 2.1422C73.5076 1.91667 72.8305 1.72336 72.0857 1.49783C71.5102 1.33674 70.393 0.885677 69.8513 1.01455C69.2419 1.14343 66.2965 2.04555 65.4163 2.3033L36.9442 10.5513C36.1994 10.6801 35.2853 11.0023 34.6082 11.099Z" fill="white"/>
<path fill-rule="evenodd" clip-rule="evenodd" d="M31.4938 75.3753C31.6631 76.9863 33.8636 76.5674 35.4548 76.5674H105.806C106.753 76.5674 107.397 76.5674 107.769 75.9875C108.142 75.4398 108.108 72.1857 108.006 71.348C107.837 69.7048 105.704 70.1237 104.079 70.1237H33.6944C32.7464 70.1237 32.1709 70.0915 31.7308 70.6714C31.3245 71.2836 31.3922 74.4732 31.4938 75.3753ZM33.8975 72.1535H35.8949C35.9626 72.1535 35.9965 72.1535 35.9965 72.1857C36.0303 72.2179 36.0303 72.2501 36.0303 72.2823V72.6367C36.0303 72.669 36.0303 72.7012 35.9965 72.7334C35.9626 72.7656 35.9288 72.7656 35.8949 72.7656H34.473V73.2489H35.0824C35.3532 73.2489 35.5902 73.2811 35.7595 73.3455C35.9288 73.41 36.0642 73.5066 36.1658 73.6355C36.2673 73.7644 36.3012 73.9577 36.3012 74.151C36.3012 74.4732 36.1996 74.6987 35.9965 74.8598C35.7934 75.0209 35.4887 75.0853 35.0824 75.0853H33.8975C33.8298 75.0853 33.7959 75.0854 33.7959 75.0531C33.7621 75.0209 33.7621 74.9887 33.7621 74.9565V72.2823C33.7621 72.2179 33.7621 72.1857 33.7959 72.1857C33.8298 72.1535 33.8636 72.1535 33.8975 72.1535ZM35.1163 73.8288C35.2517 73.8288 35.3194 73.8288 35.421 73.861C35.4887 73.8933 35.5564 73.9255 35.5902 73.9577C35.6241 73.9899 35.6241 74.0544 35.6241 74.151C35.6241 74.2799 35.5902 74.3443 35.4887 74.4088C35.3871 74.4732 35.2855 74.4732 35.0824 74.4732H34.473V73.8288H35.1163ZM41.9211 72.1535C41.955 72.1535 41.9888 72.1535 41.9888 72.1857C41.9888 72.1857 42.0227 72.2179 42.0227 72.2501C42.0227 72.2823 42.0227 72.2823 42.0227 72.3145L40.6685 74.9887C40.6346 75.0209 40.6346 75.0531 40.6008 75.0853C40.5669 75.1176 40.5669 75.1176 40.5331 75.1176C40.4992 75.1176 40.4654 75.1176 40.4315 75.1176H39.9237C39.8898 75.1176 39.8898 75.1176 39.856 75.0853C39.856 75.0853 39.8221 75.0531 39.8221 75.0209C39.8221 74.9887 39.8221 74.9887 39.856 74.9565L40.1945 74.2799L39.145 72.2823C39.145 72.2501 39.145 72.2501 39.145 72.2179C39.145 72.1857 39.145 72.1857 39.1789 72.1535C39.1789 72.1535 39.2127 72.1212 39.2466 72.1212H39.7883C39.8221 72.1212 39.856 72.1212 39.856 72.1212C39.8898 72.1212 39.8898 72.1535 39.9237 72.1535C39.9237 72.1857 39.9575 72.1857 39.9575 72.2179L40.2961 72.8623L40.5669 73.4744L40.8378 72.8623L41.1425 72.2501C41.1425 72.2179 41.1763 72.1857 41.1763 72.1857C41.1763 72.1535 41.2102 72.1535 41.244 72.1535C41.2779 72.1535 41.3117 72.1535 41.3456 72.1535H41.9211ZM47.0671 75.3109V75.0209H45.3405V75.3109C45.3405 75.3753 45.3405 75.4075 45.3066 75.4075C45.2728 75.4398 45.2389 75.4398 45.2051 75.4398H44.8326C44.7988 75.4398 44.7649 75.4398 44.7311 75.4075C44.6972 75.3753 44.6972 75.3431 44.6972 75.3109V74.5376C44.6972 74.5054 44.6972 74.4732 44.7311 74.441C44.7649 74.4088 44.7988 74.4088 44.8326 74.4088C44.9342 74.4088 44.9681 74.4088 45.0358 74.3765C45.0696 74.3443 45.1035 74.3121 45.1373 74.2799C45.1712 74.2477 45.1712 74.1832 45.1712 74.1188L45.3066 72.2823C45.3066 72.2179 45.3066 72.1857 45.3405 72.1857C45.3743 72.1535 45.4082 72.1535 45.442 72.1535H47.2364C47.2702 72.1535 47.3041 72.1535 47.3379 72.1857C47.3718 72.2179 47.3718 72.2501 47.3718 72.2823V74.4088H47.6088C47.6765 74.4088 47.7103 74.4088 47.7103 74.441C47.7442 74.4732 47.7442 74.5054 47.7442 74.5376V75.3109C47.7442 75.3753 47.7442 75.4075 47.7103 75.4075C47.6765 75.4398 47.6426 75.4398 47.6088 75.4398H47.2364C47.2025 75.4398 47.1686 75.4398 47.1348 75.4075C47.0671 75.4075 47.0671 75.3753 47.0671 75.3109ZM45.8483 74.151L45.9499 72.7334H46.627V74.441H45.6452C45.7129 74.4088 45.7467 74.3765 45.7806 74.3443C45.8483 74.3121 45.8483 74.2477 45.8483 74.151ZM51.8745 75.0853H50.825C50.7573 75.0853 50.7234 75.0854 50.7234 75.0531C50.6896 75.0209 50.6896 74.9887 50.6896 74.9565V72.2823C50.6896 72.2179 50.6896 72.1857 50.7234 72.1857C50.7573 72.1535 50.7911 72.1535 50.825 72.1535H51.299C51.3328 72.1535 51.3667 72.1535 51.4005 72.1857C51.4344 72.2179 51.4344 72.2501 51.4344 72.2823V73.12H51.8745C52.1453 73.12 52.3823 73.1522 52.5516 73.2489C52.7209 73.3133 52.8901 73.4422 52.9578 73.5711C53.0594 73.7322 53.0933 73.8933 53.0933 74.1188C53.0933 74.3121 53.0594 74.5054 52.9578 74.6665C52.8563 74.8276 52.7209 74.9243 52.5516 75.0209C52.3823 75.0531 52.1453 75.0853 51.8745 75.0853ZM51.8745 73.6999C52.0099 73.6999 52.1115 73.7322 52.1792 73.7322C52.2469 73.7644 52.3146 73.7966 52.3485 73.861C52.3823 73.9255 52.4162 73.9899 52.4162 74.0544C52.4162 74.1832 52.3823 74.2477 52.2807 74.3443C52.1792 74.4088 52.0776 74.441 51.8745 74.441H51.4344V73.6999H51.8745ZM62.1326 73.5711C62.1326 73.5711 62.1664 73.5711 62.2003 73.6033C62.2341 73.6033 62.268 73.6355 62.3018 73.6677C62.3357 73.6999 62.3695 73.7322 62.4373 73.7966C62.4711 73.861 62.505 73.9255 62.5388 73.9899C62.5727 74.0544 62.5727 74.151 62.5727 74.2477C62.5727 74.3765 62.5388 74.5054 62.505 74.6343C62.4373 74.7309 62.3695 74.8276 62.268 74.892C62.1664 74.9565 62.0648 75.0209 61.9294 75.0531C61.794 75.0854 61.6586 75.1176 61.4893 75.1176H60.1013C60.0335 75.1176 59.9997 75.1176 59.9997 75.0853C59.9658 75.0531 59.9658 75.0209 59.9658 74.9887V72.3145C59.9658 72.2823 59.9658 72.2501 59.9997 72.2179C60.0336 72.1857 60.0674 72.1857 60.1013 72.1857H61.4216C61.6247 72.1857 61.794 72.2179 61.9294 72.2501C62.0648 72.2823 62.1664 72.3468 62.268 72.4434C62.3695 72.5079 62.4373 72.6045 62.4711 72.7012C62.505 72.7978 62.5388 72.8945 62.5388 72.9911C62.5388 73.0878 62.5388 73.1522 62.505 73.2167C62.4711 73.2811 62.4711 73.3455 62.4373 73.3778C62.4034 73.41 62.3695 73.4744 62.3357 73.5066C62.3018 73.5389 62.268 73.5711 62.2341 73.5711C62.1664 73.5389 62.1326 73.5711 62.1326 73.5711ZM61.4555 74.441H60.6768V72.7656H61.3877C61.4555 72.7656 61.5232 72.7656 61.5909 72.7978C61.6586 72.7978 61.6924 72.83 61.7263 72.8623C61.7601 72.8945 61.7601 72.9589 61.7601 73.0234C61.7601 73.12 61.7263 73.1845 61.6586 73.2167C61.5909 73.2489 61.4893 73.2811 61.3539 73.2811H61.2862C61.2185 73.2811 61.1846 73.2811 61.1846 73.3133C61.1508 73.3455 61.1508 73.3778 61.1508 73.41V73.7644C61.1508 73.7966 61.1508 73.8288 61.1846 73.861C61.2185 73.8933 61.2523 73.8933 61.2862 73.8933H61.3877C61.4555 73.8933 61.5232 73.8933 61.5909 73.9255C61.6586 73.9577 61.6924 73.9577 61.7263 74.0221C61.7601 74.0544 61.7601 74.1188 61.7601 74.1832C61.7601 74.2799 61.7263 74.3443 61.6586 74.4088C61.6586 74.4088 61.557 74.441 61.4555 74.441ZM71.9505 72.1535C71.9844 72.1535 71.9844 72.1535 72.0182 72.1857C72.0182 72.1857 72.0182 72.2179 72.0182 72.2501C72.0182 72.2823 72.0182 72.2823 71.9844 72.3145L70.9349 73.41L71.9505 74.9887C71.9505 75.0209 71.9844 75.0209 71.9844 75.0531C71.9844 75.0854 71.9844 75.0853 71.9505 75.1176C71.9505 75.1176 71.9166 75.1498 71.8828 75.1498H71.3073C71.2396 75.1498 71.2057 75.1498 71.1718 75.1176C71.138 75.0853 71.1041 75.0531 71.0703 75.0209C71.0703 75.0209 71.0703 74.9887 71.0364 74.9565C71.0026 74.9243 71.0026 74.892 70.9349 74.8276C70.901 74.7632 70.8671 74.6987 70.7994 74.6343C70.7656 74.5698 70.6979 74.4732 70.664 74.4088C70.6302 74.3443 70.5625 74.2477 70.5286 74.1832C70.4947 74.1188 70.427 74.0221 70.3932 73.9577L70.0885 74.2477V75.0531C70.0885 75.1176 70.0885 75.1498 70.0546 75.1498C70.0208 75.182 69.9869 75.182 69.9531 75.182H69.4791C69.4452 75.182 69.4114 75.182 69.3775 75.1498C69.3437 75.1176 69.3437 75.0854 69.3437 75.0531V72.379C69.3437 72.3145 69.3437 72.2823 69.3775 72.2823C69.4114 72.2501 69.4452 72.2501 69.4791 72.2501H69.9531C69.9869 72.2501 70.0208 72.2501 70.0546 72.2823C70.0885 72.3146 70.0885 72.3468 70.0885 72.379V73.3778L71.0703 72.3468C71.1041 72.3146 71.138 72.2823 71.138 72.2823C71.1718 72.2823 71.1718 72.2501 71.2057 72.2501C71.2395 72.2501 71.2734 72.2501 71.3073 72.2501H71.9505V72.1535ZM77.3335 73.0878V74.151C77.3335 74.2799 77.2996 74.4088 77.2658 74.5376C77.2319 74.6343 77.1303 74.7309 77.0626 74.8276C76.9611 74.892 76.8933 74.9565 76.7579 75.0209C76.6564 75.0854 76.5209 75.1176 76.4194 75.1498C76.3178 75.182 76.1824 75.182 76.0808 75.182C75.9793 75.182 75.8438 75.182 75.7423 75.1498C75.6407 75.1176 75.5053 75.0854 75.4037 75.0209C75.3022 74.9565 75.2006 74.892 75.099 74.8276C74.9975 74.7632 74.9298 74.6665 74.8959 74.5376C74.862 74.441 74.8282 74.3121 74.8282 74.151V73.0878C74.8282 72.9589 74.862 72.83 74.8959 72.7012C74.9298 72.6045 74.9975 72.5079 75.099 72.4112C75.2006 72.3468 75.2683 72.2501 75.4037 72.2179C75.5053 72.1535 75.6407 72.1212 75.7423 72.089C75.8438 72.0568 75.9793 72.0568 76.0808 72.0568C76.1824 72.0568 76.3178 72.0568 76.4194 72.089C76.5209 72.1212 76.6564 72.1535 76.7579 72.2179C76.8595 72.2823 76.9611 72.3468 77.0626 72.4112C77.1642 72.4756 77.2319 72.5723 77.2658 72.7012C77.2996 72.83 77.3335 72.9589 77.3335 73.0878ZM76.5886 74.0866C76.5886 74.1832 76.5548 74.2477 76.5209 74.3443C76.4871 74.4088 76.4194 74.4732 76.3517 74.5054C76.284 74.5376 76.1824 74.5699 76.0808 74.5699C75.9793 74.5699 75.8777 74.5376 75.81 74.5054C75.7423 74.4732 75.6746 74.4088 75.6407 74.3443C75.6068 74.2799 75.573 74.1832 75.573 74.0866V73.1522C75.573 73.0556 75.6068 72.9911 75.6407 72.8945C75.6746 72.83 75.7423 72.7656 75.81 72.7334C75.8777 72.7012 75.9793 72.669 76.0808 72.669C76.1824 72.669 76.284 72.7012 76.3517 72.7334C76.4194 72.7656 76.4871 72.83 76.5209 72.8945C76.5548 72.9589 76.5886 73.0556 76.5886 73.1522V74.0866ZM83.1904 72.1535C83.2581 72.1535 83.2919 72.1535 83.2919 72.1857C83.3258 72.2179 83.3258 72.2501 83.3258 72.2823V74.9565C83.3258 75.0209 83.3258 75.0531 83.2919 75.0531C83.2581 75.0854 83.2242 75.0853 83.1904 75.0853H82.7503C82.7164 75.0853 82.6825 75.0854 82.6487 75.0531C82.6148 75.0209 82.6148 74.9887 82.6148 74.9565V73.4422L82.1409 74.2154L82.107 74.2477L82.0732 74.2799C82.0393 74.2799 82.0393 74.2799 82.0055 74.3121H81.7685C81.7346 74.3121 81.7346 74.3121 81.7007 74.2799L81.6669 74.2477L81.633 74.2154L81.1591 73.4422V74.9565C81.1591 75.0209 81.1591 75.0531 81.1252 75.0531C81.0914 75.0854 81.0575 75.0853 81.0236 75.0853H80.5497C80.5158 75.0853 80.482 75.0854 80.4481 75.0531C80.4143 75.0209 80.4143 74.9887 80.4143 74.9565V72.2823C80.4143 72.2501 80.4143 72.2179 80.4481 72.1857C80.482 72.1535 80.5158 72.1535 80.5497 72.1535H81.0236C81.0914 72.1535 81.1252 72.1535 81.1591 72.1857C81.1929 72.2179 81.1929 72.2179 81.2268 72.2501C81.2268 72.2823 81.2606 72.2823 81.2606 72.3145L81.9039 73.41L82.5471 72.3145C82.5471 72.2823 82.581 72.2823 82.581 72.2501C82.581 72.2179 82.6148 72.2179 82.6487 72.1857C82.6825 72.1535 82.7164 72.1535 82.7503 72.1535H83.1904ZM89.1488 74.9565C89.1488 74.9887 89.1488 74.9887 89.1488 75.0209C89.1488 75.0531 89.1489 75.0531 89.115 75.0531C89.115 75.0531 89.0811 75.0853 89.0473 75.0853H88.5395C88.5056 75.0853 88.4717 75.0853 88.4717 75.0853C88.4379 75.0853 88.4379 75.0531 88.404 75.0531C88.404 75.0209 88.3702 75.0209 88.3702 74.9565L88.2348 74.6021H87.0837L86.9483 74.9565C86.9483 74.9887 86.9144 75.0209 86.9144 75.0531C86.9144 75.0854 86.8806 75.0853 86.8467 75.0853C86.8129 75.0853 86.8129 75.0853 86.779 75.0853H86.2712C86.2373 75.0853 86.2035 75.0854 86.2035 75.0531L86.1696 75.0209C86.1696 74.9887 86.1696 74.9887 86.1696 74.9565L87.2191 72.2823C87.253 72.2501 87.253 72.1857 87.2868 72.1857C87.3207 72.1535 87.3545 72.1535 87.4223 72.1535H87.8624C87.9301 72.1535 87.9639 72.1535 87.9978 72.1857C88.0316 72.2179 88.0655 72.2501 88.0655 72.2823L89.1488 74.9565ZM87.3545 73.9577L87.6931 72.9589L88.0316 73.9577H87.3545ZM94.4302 72.1535C94.4641 72.1535 94.4979 72.1535 94.5318 72.1857C94.5657 72.2179 94.5657 72.2501 94.5657 72.2823V74.9565C94.5657 75.0209 94.5657 75.0531 94.5318 75.0531C94.4979 75.0854 94.4641 75.0853 94.4302 75.0853H93.9563C93.9224 75.0853 93.8886 75.0854 93.8547 75.0531C93.8209 75.0209 93.8208 74.9887 93.8208 74.9565V73.9577H92.7713V74.9565C92.7713 75.0209 92.7713 75.0531 92.7375 75.0531C92.7036 75.0854 92.6698 75.0853 92.6359 75.0853H92.162C92.1281 75.0853 92.0942 75.0854 92.0604 75.0531C92.0265 75.0209 92.0265 74.9887 92.0265 74.9565V72.2823C92.0265 72.2179 92.0265 72.1857 92.0604 72.1857C92.0942 72.1535 92.1281 72.1535 92.162 72.1535H92.6359C92.6698 72.1535 92.7036 72.1535 92.7375 72.1857C92.7713 72.2179 92.7713 72.2501 92.7713 72.2823V73.2811H93.8208V72.2823C93.8208 72.2179 93.8209 72.1857 93.8547 72.1857C93.8886 72.1535 93.9224 72.1535 93.9563 72.1535H94.4302ZM99.8809 75.3109V75.0209H98.1543V75.3109C98.1543 75.3753 98.1543 75.4075 98.1204 75.4075C98.0866 75.4398 98.0527 75.4398 98.0189 75.4398H97.6126C97.5787 75.4398 97.5449 75.4398 97.511 75.4075C97.4772 75.3753 97.4772 75.3431 97.4772 75.3109V74.5376C97.4772 74.5054 97.4772 74.4732 97.511 74.441C97.5449 74.4088 97.5787 74.4088 97.6126 74.4088C97.7142 74.4088 97.748 74.4088 97.8157 74.3765C97.8496 74.3443 97.8835 74.3121 97.9173 74.2799C97.9512 74.2477 97.9511 74.1832 97.9511 74.1188L98.0866 72.2823C98.0866 72.2179 98.0866 72.1857 98.1204 72.1857C98.1543 72.1535 98.1881 72.1535 98.222 72.1535H100.016C100.05 72.1535 100.084 72.1535 100.118 72.1857C100.152 72.2179 100.152 72.2501 100.152 72.2823V74.4088H100.389C100.456 74.4088 100.49 74.4088 100.49 74.441C100.524 74.4732 100.524 74.5054 100.524 74.5376V75.3109C100.524 75.3753 100.524 75.4075 100.49 75.4075C100.456 75.4398 100.423 75.4398 100.389 75.4398H100.016C99.9825 75.4398 99.9486 75.4398 99.9147 75.4075C99.9147 75.4075 99.8809 75.3753 99.8809 75.3109ZM98.696 74.151L98.7975 72.7334H99.4746V74.441H98.4928C98.5605 74.4088 98.5944 74.3765 98.6283 74.3443C98.6621 74.3121 98.6621 74.2477 98.696 74.151ZM105.738 74.441C105.806 74.441 105.839 74.441 105.839 74.4732C105.873 74.5054 105.873 74.5376 105.873 74.5699V74.9243C105.873 74.9565 105.873 74.9887 105.839 75.0209C105.806 75.0531 105.772 75.0531 105.738 75.0531H103.639C103.571 75.0531 103.537 75.0531 103.537 75.0209C103.503 74.9887 103.503 74.9565 103.503 74.9243V72.2501C103.503 72.2179 103.503 72.1857 103.537 72.1535C103.571 72.1212 103.605 72.1212 103.639 72.1212H105.67C105.738 72.1212 105.772 72.1212 105.772 72.1535C105.806 72.1857 105.806 72.2179 105.806 72.2501V72.6045C105.806 72.6367 105.806 72.669 105.772 72.7012C105.738 72.7334 105.704 72.7334 105.67 72.7334H104.248V73.2167H105.501C105.569 73.2167 105.602 73.2167 105.602 73.2489C105.636 73.2811 105.636 73.3133 105.636 73.3455V73.6999C105.636 73.7322 105.636 73.7644 105.602 73.7966C105.569 73.8288 105.535 73.8288 105.501 73.8288H104.248V74.4088H105.738V74.441Z" fill="white"/>
<path fill-rule="evenodd" clip-rule="evenodd" d="M0.99013 27.0473C1.0917 26.9184 1.22712 26.7895 1.32868 26.6607L1.39639 27.0151C2.68288 26.8218 4.07094 26.4351 5.35743 26.1774C27.2616 21.7634 47.2699 19.6692 70.0882 19.6692C91.0444 19.6692 114.235 21.7634 134.819 26.1452C136.105 26.4351 137.527 26.7895 138.814 26.9828V60.7157C137.561 60.909 136.173 61.2635 134.887 61.5212C125.34 63.4865 115.996 65.0008 106.245 66.064C82.1744 68.706 58.0358 68.6737 33.9988 66.064C24.0454 64.9686 15.0738 63.5188 5.42514 61.5534C4.10479 61.2957 2.75059 60.9413 1.4641 60.7157V27.1762C1.32868 26.9184 1.15941 27.1439 0.99013 27.0473ZM0.211469 61.6179C1.39639 61.9723 2.95372 62.23 4.20636 62.4878C45.374 71.1868 90.7397 71.4123 131.975 63.2932C134.65 62.7777 137.29 62.1011 139.931 61.6179V26.1129C138.611 25.8874 137.223 25.533 135.902 25.2753C126.457 23.2133 116.436 21.699 106.787 20.6036C78.2473 17.3173 44.5954 17.9939 16.2587 22.9877C11.9592 23.7288 4.13865 25.1142 0.177612 26.1452L0.211469 61.6179Z" fill="white"/>
<path fill-rule="evenodd" clip-rule="evenodd" d="M16.8006 37.5827C17.6808 37.1961 19.3735 37.1317 19.9829 37.615C21.4725 38.8715 21.608 42.2222 20.8293 43.0921C20.423 43.5432 18.7303 43.8332 17.8839 43.8976L16.8006 37.5827ZM15.7511 31.3968L16.7328 37.1961C19.2043 36.9062 20.0506 36.3584 19.5428 33.7487C19.4074 32.9755 18.9673 32.0734 18.561 31.6545C17.9178 31.0424 16.7667 31.3001 15.7511 31.3968ZM7.82898 32.5567C7.99825 32.8144 7.72741 32.75 8.77692 32.5889C10.3342 32.3956 10.5035 32.75 10.8082 34.2642C11.316 36.6806 11.9593 40.128 12.4333 42.6088C12.8057 44.5742 12.6364 44.7353 10.8082 45.1541C10.4358 45.2186 10.4697 45.1541 10.402 45.4119C10.6728 45.6696 11.6546 45.3474 12.027 45.283C14.837 44.7997 22.4543 43.7365 24.0117 43.221C28.0404 41.8678 27.2618 37.325 24.1471 36.7451C22.5559 36.4551 21.6757 36.8739 20.3892 36.8095C20.7616 36.4551 24.6888 36.3262 24.8919 33.8454C25.0612 31.5901 23.1314 30.398 20.8293 30.4624C18.087 30.5591 11.8577 31.7834 8.53993 32.3311C8.43837 32.3633 8.23524 32.3633 8.16753 32.3956C7.69356 32.46 7.9644 32.3311 7.82898 32.5567Z" fill="white"/>
<path fill-rule="evenodd" clip-rule="evenodd" d="M33.6263 80.7877C34.4727 81.0132 35.2852 83.7518 33.6941 83.8806C32.069 84.0095 32.9154 81.2065 33.6263 80.7877ZM13.3472 79.0156C13.2118 78.919 13.3133 78.9834 13.1779 78.8868C12.5347 78.2102 12.0946 76.8248 13.5842 76.4704C14.3629 77.1792 13.618 78.2746 13.3472 79.0156ZM11.4175 80.0466C9.69087 81.0132 6.91476 78.7901 6.03453 77.7913C5.79754 77.5014 5.59441 77.2758 5.35743 76.9536C3.90166 75.1172 2.88601 72.5719 2.95372 70.0911C3.02143 67.0303 4.24021 66.9659 2.91987 66.6759C2.47975 66.5792 2.03964 66.4504 1.56567 66.4826C0.787005 67.4169 0.414598 70.2199 0.516163 71.7342C0.922423 77.3725 6.40693 82.9463 12.7378 81.2065C13.5165 80.981 13.2118 80.981 13.9227 81.2709C16.1572 82.1408 18.5609 82.3664 21.0661 82.1408C22.962 81.9797 24.7902 81.5609 26.5507 81.1421C27.7356 80.8521 30.681 79.9822 31.8659 80.1111C31.3581 80.8521 30.3424 82.173 30.6471 83.494C31.3581 86.8125 40.4312 84.9439 35.116 80.1755C35.2514 79.9822 35.1837 80.0144 35.4545 79.8855C38.2306 78.2746 43.5797 79.7244 46.322 80.691C47.3376 81.0454 48.6918 81.8831 49.7413 81.3354C49.9106 80.5621 49.3012 80.2077 48.6918 79.9177C45.1709 78.3713 41.4469 77.5658 37.4858 78.0491C35.0144 78.339 34.0326 78.9834 33.2201 79.1123C32.8815 79.1767 31.3919 78.9512 30.6471 79.0156C29.8346 79.0801 29.0898 79.2089 28.3111 79.37C26.8892 79.66 25.4673 80.0788 24.0454 80.401C19.9828 81.3676 18.4932 81.1743 14.7014 80.4977C15.2092 79.66 16.3264 78.7901 16.3264 77.2758C16.3264 75.9549 15.1077 75.1816 13.7535 75.0527C11.4175 74.8272 9.55545 76.116 10.5372 78.5968C10.8419 79.3378 11.1128 79.4989 11.3159 79.8855C11.4175 80.0466 11.3498 79.8211 11.4175 80.0466Z" fill="white"/>
<path fill-rule="evenodd" clip-rule="evenodd" d="M106.855 80.7877C107.6 81.0776 108.48 83.8807 106.956 83.8807C105.264 83.8807 106.042 81.1421 106.855 80.7877ZM127.235 78.9834C126.999 78.6935 126.795 78.2102 126.694 77.7914C126.525 77.147 126.525 76.8248 126.931 76.5026C128.048 76.567 128.387 77.888 127.235 78.9834ZM109.902 83.4618C110.206 82.0442 109.191 80.9165 108.683 80.0789C110.308 80.0466 112.542 80.7877 114.1 81.1743C115.826 81.5931 117.621 81.9798 119.517 82.1731C121.954 82.3986 124.493 82.1731 126.626 81.3032C127.337 81.0132 127.066 81.0454 127.811 81.271C128.691 81.5287 129.707 81.6254 130.689 81.5609C134.447 81.3032 137.121 78.7579 138.442 76.5348C140.067 73.8285 140.676 69.7045 139.017 66.6437C138.611 66.5793 137.46 66.8692 137.053 67.0303C137.02 67.417 137.46 68.7701 137.527 69.3823C137.934 73.0552 136.004 76.7604 133.16 79.0157C132.449 79.5956 130.35 80.8843 129.064 80.0789C131.535 76.9859 129.775 74.8272 126.795 75.085C123.647 75.3749 123.478 78.0813 125.847 80.4011C125.746 80.5299 125.881 80.4333 125.644 80.5299C125.61 80.5622 125.441 80.5944 125.373 80.5944L123.715 80.9166C122.868 81.0132 122.056 81.0776 121.175 81.0454C119.618 81.0132 117.959 80.7232 116.537 80.4011C115.115 80.0789 113.727 79.66 112.272 79.3701C108.649 78.5968 108.074 79.209 107.363 79.1123C106.99 79.0479 105.873 78.629 105.331 78.4679C102.961 77.8558 100.422 77.7591 98.0186 78.1135C96.4274 78.3391 90.2319 79.7245 90.8413 81.2387C91.5184 82.0764 93.5836 80.9488 94.2946 80.691C97.3076 79.5956 102.826 78.2424 105.467 80.1111C105.365 80.3044 105.094 80.5621 104.891 80.7555C102.826 82.7852 103.842 84.9439 106.685 85.1694C108.209 85.2661 109.631 84.6861 109.902 83.4618Z" fill="white"/>
<path fill-rule="evenodd" clip-rule="evenodd" d="M56.8508 34.0387L57.1217 40.5468C58.0019 40.6113 57.1555 38.807 58.2389 38.5815C58.8821 38.4526 60.1009 39.2259 60.6087 39.4836C62.1661 40.2891 64.1635 40.7079 66.0933 40.0636C67.6506 39.5481 69.2079 38.5171 69.5803 36.9706C70.0881 34.9086 68.7339 33.3621 67.6167 32.6211C66.4318 31.8478 64.4344 31.3323 62.8432 30.8168C61.9291 30.5269 61.1504 30.3335 60.5072 29.8503C57.9003 27.9494 62.1999 25.7585 65.2807 27.8527C66.161 28.4326 67.2105 29.4314 67.6167 30.398C67.7183 30.5913 67.786 30.7846 67.8537 30.9779C67.9891 31.3645 67.9214 31.3645 68.2938 31.3968C68.3954 31.2679 68.3277 31.3968 68.3954 31.2034C68.4293 31.1068 68.4293 31.0101 68.4293 30.8813C68.4293 30.6879 68.4293 30.4302 68.4293 30.2047C68.4293 29.367 68.4631 27.0472 68.3615 26.5317H68.0568C67.7521 27.015 68.1246 28.626 66.5334 27.8849C65.7886 27.5305 65.0099 27.1117 64.2312 26.8861C60.9134 25.8551 55.9706 28.0138 57.0201 32.1378C57.2232 33.0077 57.7311 33.6521 58.3743 34.0387C59.0176 34.3931 59.9316 34.7797 60.6765 35.0375C62.8093 35.8429 67.549 36.4873 66.4657 38.8715C66.1271 39.6125 65.2469 39.9669 64.1974 39.9669C63.1479 39.9669 62.2338 39.7414 61.4213 39.3548C60.7442 39.0326 59.8978 38.3882 59.4915 37.9694C58.6452 37.035 58.0696 36.1329 57.5956 34.9408C57.1894 33.9742 57.3587 34.0387 56.8508 34.0387Z" fill="white"/>
<path fill-rule="evenodd" clip-rule="evenodd" d="M92.4666 32.2345C92.602 32.6534 93.2114 32.2667 93.6515 32.7178C93.8546 32.9111 94.0577 33.5877 94.1932 33.8454C94.5656 34.8442 96.6984 40.9013 96.8677 41.159L98.2896 41.2557C98.8313 40.1603 102.014 34.3287 102.589 33.7488C103.368 32.9433 104.654 33.4266 104.824 33.5877C105.162 33.9743 104.587 38.0338 104.485 38.7749C104.417 39.3548 104.384 40.8691 103.943 41.1913C103.503 41.3524 103.097 41.1913 102.826 41.3201C102.826 41.7068 103.131 41.5779 104.282 41.7068L108.649 42.1578C108.785 42.1578 108.988 42.2223 109.123 42.2223C109.259 42.2223 109.225 42.2223 109.36 42.2223C109.597 42.19 109.394 42.2545 109.53 42.1578C109.462 41.9323 109.597 41.9967 108.988 41.8679C108.615 41.8034 108.548 41.739 108.378 41.5779C108.175 41.159 109.123 34.6509 109.225 33.5233C109.056 33.491 101.235 32.6856 100.93 32.7178C100.626 32.75 100.863 32.6534 100.659 32.8144C100.863 33.6199 103.029 32.1056 100.964 35.6497L99.7115 37.7761C99.4746 37.0029 99.2037 36.2296 98.9329 35.4564C98.7636 34.8764 98.1542 33.5877 98.3912 33.0722C98.8313 32.6856 99.2376 33.1366 99.4068 32.75C99.2714 32.4923 98.3573 32.5245 97.8157 32.4923C97.2401 32.46 96.6307 32.3956 96.0552 32.3634C95.4458 32.3312 94.8703 32.2667 94.2609 32.2345C93.8208 32.1701 92.7712 31.9445 92.4666 32.2345Z" fill="white"/>
<path fill-rule="evenodd" clip-rule="evenodd" d="M60.3718 94.6418C60.3718 95.6084 60.3718 96.575 60.3718 97.5737C60.3718 98.9269 60.1686 99.6035 60.7442 100.119C61.6244 100.924 62.7416 102.213 63.6895 102.986L66.8381 105.661C67.3797 106.208 67.7521 106.659 68.3277 107.11C68.8694 107.529 69.1741 108.174 69.7834 108.528C70.122 108.302 72.5934 105.757 73.5752 104.952C73.846 104.726 74.083 104.501 74.3539 104.307L75.1325 103.663C76.4867 102.568 77.6717 101.279 78.8566 100.151C79.2967 99.7324 79.0936 98.2825 79.0936 97.5093C79.0936 96.575 79.0936 95.6406 79.0936 94.7063L77.13 94.9963C77.0623 95.544 77.0961 97.5737 77.0961 98.347C77.0961 99.1847 76.9607 99.1524 75.7081 100.28C75.5049 100.473 75.3018 100.634 75.0987 100.828C74.3539 101.537 73.1012 102.471 72.6273 102.922L69.7834 105.596C69.6142 105.499 68.023 103.889 67.4813 103.405C66.6688 102.729 65.924 102.02 65.0099 101.311L63.825 100.216C62.4369 98.9913 62.4369 99.088 62.4369 98.1537C62.4369 97.3482 62.4708 95.6406 62.4369 94.9963L60.3718 94.6418Z" fill="white"/>
<path fill-rule="evenodd" clip-rule="evenodd" d="M33.7957 37.1316C33.8973 38.0981 33.9989 39.0647 34.1343 39.999C34.202 40.5467 34.1681 40.9656 33.8296 41.2878C33.5588 41.5455 33.0171 41.7066 32.6785 41.3844C32.4754 41.1911 31.5613 38.4847 32.8139 37.7437L33.7957 37.1316ZM33.6942 36.906C32.577 37.9692 29.6993 37.4215 28.5821 38.9358C27.6341 40.1923 28.3112 42.802 31.3582 42.5765C32.0353 42.5121 32.7462 42.351 33.2541 42.0932C34.1343 41.6422 33.9312 41.5777 34.4728 40.8367C34.9807 41.3522 34.9468 41.6099 35.9286 41.8677C37.2151 42.1899 39.7204 41.7066 39.9574 39.8057C40.0251 39.1291 40.0589 38.8391 39.7542 38.7425C39.4157 39.0969 39.9235 40.2245 39.2125 40.5789C38.3662 40.9978 38.2308 40.0634 38.163 39.4191C38.0276 38.2592 37.9599 36.0361 37.6552 35.0373C36.9781 32.6532 32.1368 33.1364 30.0717 34.0386C27.194 35.2951 27.7018 37.6793 30.241 37.3893C32.7124 37.0993 32.6785 35.4884 32.0353 34.9729C31.7306 34.7474 31.392 34.7152 31.3582 34.3607C31.3243 34.0063 31.6629 33.8453 32.0014 33.7486C32.9832 33.5231 33.3218 33.8452 33.4572 34.6829C33.5588 35.1662 33.7619 36.4227 33.6942 36.906Z" fill="white"/>
<path fill-rule="evenodd" clip-rule="evenodd" d="M62.4708 85.395C63.7912 84.7184 68.1246 84.3318 69.8174 84.3318C71.9164 84.3318 75.4373 84.7184 77.13 85.4273V92.5154C77.7733 92.4831 78.552 92.4509 79.1275 92.2898V84.1063C76.6899 83.0431 72.7966 82.302 69.7497 82.3343C67.2782 82.3665 64.7391 82.6887 62.437 83.3975C61.7937 83.5908 60.9474 83.9452 60.3718 84.0741V92.322C61.0489 92.3865 61.7599 92.5476 62.437 92.4831L62.4708 85.395Z" fill="white"/>
<path fill-rule="evenodd" clip-rule="evenodd" d="M73.0673 93.0633C72.9657 93.2566 72.8303 93.4499 72.7626 93.6754C72.661 93.9976 72.7626 94.2232 72.661 94.5453C72.661 95.1575 73.135 95.6085 73.8121 95.5763C74.5569 95.5441 74.7939 95.0286 75.2001 94.7709C80.8878 94.5775 84.6457 92.7089 86.7447 89.2293C88.539 86.1685 88.2343 82.56 86.203 79.6281C85.8983 79.1771 84.7473 77.7272 84.1717 77.4373C84.3071 78.0172 84.578 78.6616 84.7811 79.2415C85.2551 80.5625 86.3046 83.591 86.3384 84.7509C85.8645 84.4931 85.5598 84.0421 85.1197 83.6877C84.7134 83.3333 84.3071 83.0111 83.867 82.6567C83.4608 82.3345 81.6326 80.8846 80.8539 81.2713C80.8539 81.529 81.1925 81.6579 81.5649 82.0445C82.716 83.1399 84.5441 84.332 85.2551 86.0718C85.7291 87.2317 85.3566 87.6505 84.9504 88.456C84.8488 88.3594 84.9165 88.4238 84.815 88.2949L84.6457 87.9405C84.578 87.7794 84.5103 87.6183 84.4426 87.4895C84.0702 86.684 83.2576 85.5563 82.5128 85.1697C82.6144 85.6852 82.9868 86.3296 83.1561 87.0062C83.6639 89.1004 83.2238 90.8724 81.2263 91.9034C79.7029 92.6767 76.2158 93.0955 74.7939 92.6767C74.2183 92.4833 73.2027 92.5478 73.0673 93.0633Z" fill="white"/>
<path fill-rule="evenodd" clip-rule="evenodd" d="M53.1606 84.7509C53.2283 83.6554 53.8039 81.9801 54.1763 80.9169C54.3794 80.2403 55.3274 77.8239 55.3612 77.3728C55.2935 77.5017 54.5487 78.1138 54.3117 78.4038C54.007 78.7582 53.6685 79.1448 53.3638 79.5637C49.8767 84.4931 51.9419 90.7435 57.2571 93.2244C59.7962 94.4165 61.3536 94.4809 64.4005 94.7709C64.7391 95.093 64.8068 95.3186 65.3484 95.5119C66.9735 96.0596 67.4813 93.9332 66.5334 92.9988C65.7208 92.1934 65.0099 92.7733 63.8927 92.7733C61.3197 92.8378 57.7988 92.58 56.58 90.2925C55.6659 88.4882 56.4446 86.7484 57.0201 85.1697C55.4289 86.0396 55.1581 87.6506 54.6503 88.4238C53.1945 87.1673 54.7518 85.1053 55.4628 84.2998C56.1399 83.5266 58.442 81.7223 58.7129 81.3035C57.5279 80.5302 53.7362 84.3965 53.1606 84.7509Z" fill="white"/>
<path fill-rule="evenodd" clip-rule="evenodd" d="M44.8661 33.8454L44.7306 32.4278C44.6291 32.4278 39.7201 32.7822 39.4493 32.8466C39.1784 32.9433 39.28 32.8144 39.2123 33.0399C39.8555 33.5554 40.6003 32.3633 40.8373 34.3931L41.3452 39.6447C41.379 40.0636 41.4806 40.6435 41.2097 40.9013C40.9727 41.0946 40.4649 41.0946 40.3634 41.1268C40.0925 41.2234 40.1941 41.0946 40.0925 41.3201C40.1264 41.3201 40.1602 41.3201 40.1602 41.3523L40.4649 41.4168C40.5326 41.4168 40.8712 41.3845 40.9727 41.3845C41.2774 41.3523 41.5821 41.3201 41.853 41.3201L46.2541 40.9657C47.2359 40.9013 46.9312 40.9335 47.0328 40.7402C46.8297 40.3858 46.4911 40.7402 45.8817 40.5469C45.4755 40.418 45.4755 39.9669 45.4416 39.5481C45.34 38.7104 45.2723 37.8405 45.2046 36.9706C45.1369 36.294 44.9676 35.0375 45.0353 34.4253C45.1031 33.6843 45.6447 32.8466 46.4573 32.9755C46.4234 33.5876 45.814 33.8776 46.051 34.8442C46.4573 36.584 49.9105 36.5195 50.249 34.4253C50.4521 33.0721 49.2334 32.1056 47.9469 32.0734C46.0848 32.0411 45.4755 32.5889 44.8661 33.8454Z" fill="white"/>
<path fill-rule="evenodd" clip-rule="evenodd" d="M81.9373 31.7188C82.2758 32.3631 83.3592 31.2355 83.3592 33.2008C83.3592 34.1352 83.2915 35.0695 83.2576 36.0038C83.2238 36.8737 83.1899 37.7436 83.1222 38.6458C83.0545 39.6445 83.1222 39.9023 82.242 39.9667C81.8357 39.9989 81.768 39.8701 81.6664 40.1278C81.8019 40.3856 82.6144 40.2889 83.2238 40.3211C84.104 40.3533 88.4036 40.6111 88.6067 40.45C88.539 39.7734 87.1509 40.8044 87.1848 39.129C87.2187 38.388 87.3541 34.264 87.4895 33.813C87.6249 33.2008 88.2682 32.3309 89.0468 32.5887C89.0468 32.9431 87.4218 34.554 89.3177 35.6172C90.6041 36.326 92.2292 35.585 92.6016 34.5862C93.3464 32.5242 90.6719 31.2999 88.7083 32.041C88.065 32.2665 87.8619 32.8142 87.4556 33.233L87.4895 31.8476C87.3541 31.8154 82.8175 31.5577 82.3435 31.6221C82.1743 31.6543 82.3435 31.5899 82.1743 31.6543C81.9373 31.6866 82.1066 31.6221 81.9373 31.7188Z" fill="white"/>
<path fill-rule="evenodd" clip-rule="evenodd" d="M115.217 34.232C112.779 34.4253 110.917 35.7463 110.545 37.8727C109.766 42.7055 117.181 44.9285 120.363 41.9644C120.431 41.9 120.803 41.4812 120.837 41.4167C120.871 41.3201 121.074 41.2556 120.803 41.159C120.397 40.9657 120.735 41.4489 119.415 42.3188C118.501 42.8988 117.079 43.0921 116.029 42.4799C113.558 41.0945 114.878 33.8131 117.688 34.7475C119.144 35.1985 117.214 36.4873 117.587 37.6472C117.824 38.4848 119.043 39.2259 120.295 39.0325C121.514 38.8715 122.022 37.5505 121.277 36.5195C120.228 35.1341 117.824 34.0065 115.217 34.232Z" fill="white"/>
<path fill-rule="evenodd" clip-rule="evenodd" d="M125.949 39.3869C126.051 38.4203 126.491 36.0684 127.845 36.2295C129.707 36.4228 128.725 39.6768 128.624 39.8379L125.949 39.3869ZM131.874 42.7698C131.23 42.3832 131.806 43.0598 130.181 43.9619C129.47 44.3808 128.387 44.413 127.506 44.0908C125.78 43.4787 125.644 41.7388 125.847 39.7091L132.246 40.7723C132.652 39.4835 131.975 38.0337 131.264 37.3893C130.486 36.6483 129.571 36.165 128.082 35.9073C125.069 35.424 122.53 36.7127 121.819 38.8392C120.837 41.7711 122.936 43.7364 125.103 44.4774C126.355 44.8963 127.811 45.0896 129.165 44.703C129.808 44.5096 130.35 44.2519 130.79 43.9297C131.061 43.7686 131.806 43.1565 131.874 42.7698Z" fill="white"/>
<path fill-rule="evenodd" clip-rule="evenodd" d="M75.0313 34.973C74.9636 34.4252 75.099 33.362 75.2005 32.8465C75.3698 32.1055 75.5729 31.59 76.3516 31.59C78.0444 31.5578 77.7397 33.6842 77.7735 35.0374L75.0313 34.973ZM81.2944 37.4538C80.7866 37.2605 81.1252 38.0015 79.8048 38.9681C78.6199 39.838 74.862 40.2246 74.9636 35.3596L81.4299 35.4885C81.3283 29.5602 71.5104 30.269 70.8333 35.1341C70.427 38.0015 72.4921 39.7735 74.9974 40.1924C77.3334 40.6112 79.771 40.0635 81.0236 38.227L81.3283 37.6793C81.3622 37.486 81.3621 37.5504 81.2944 37.4538Z" fill="white"/>
<path fill-rule="evenodd" clip-rule="evenodd" d="M119.246 69.6078C119.889 69.5111 120.837 69.6078 121.345 69.8656C122.157 70.2844 121.378 70.9932 120.634 71.1221C118.568 71.5409 117.011 69.93 119.246 69.6078ZM120.126 72.3464C119.279 73.1841 116.402 73.6674 114.878 73.8284C113.355 73.9895 110.714 73.7962 110.071 74.1829C109.597 74.4728 109.766 74.795 110.274 74.9883C111.425 75.3427 115.285 75.0205 116.571 74.795C118.602 74.4728 121.141 73.6351 122.394 72.282C122.766 71.8631 122.97 71.992 123.681 71.8631C124.629 71.702 125.475 71.5087 126.389 71.2187C127.811 70.7999 130.147 69.93 131.163 69.2534C132.754 68.1902 131.535 67.8036 130.689 67.9969C129.741 68.1902 130.926 68.3513 128.657 69.2856C127.642 69.7045 124.662 70.7355 123.511 70.7677C123.748 70.1233 124.019 69.4789 123.477 68.899C121.277 66.4181 114.167 69.3823 116.165 71.412C117.079 72.2497 118.738 72.1209 120.126 72.3464Z" fill="white"/>
<path fill-rule="evenodd" clip-rule="evenodd" d="M111.459 16.254C113.456 15.7063 115.149 17.2206 113.355 17.6716C112.644 17.865 111.662 17.7683 111.086 17.5106C110.172 17.1561 110.68 16.4796 111.459 16.254ZM112.17 14.9975C112.847 14.2887 114.811 13.8698 116.063 13.6765C117.857 13.3866 119.313 13.4188 121.141 13.4188C122.529 13.4188 123.951 12.1945 119.753 12.2267C116.469 12.2589 112.779 12.7422 110.24 14.7075C108.818 15.803 110.782 14.9653 107.362 15.7385C105.805 16.0607 100.05 17.8972 100.354 19.0893C100.591 19.4437 101.032 19.4437 101.472 19.3792C102.521 19.2181 101.133 18.9604 104.146 17.8327C105.365 17.3817 107.295 16.7373 108.683 16.5762C108.243 17.9616 108.277 18.9604 110.477 19.3148C111.899 19.5403 113.389 19.2504 114.54 18.7026C115.251 18.3482 117.147 17.0917 116.029 15.9963C115.251 15.1586 113.558 15.0942 112.17 14.9975Z" fill="white"/>
<path fill-rule="evenodd" clip-rule="evenodd" d="M29.0225 17.2206C28.5147 17.6716 27.9053 17.8005 27.0589 17.8005C26.3818 17.8005 25.2308 17.5428 25.6709 16.8017C26.0771 16.0607 29.0225 15.6419 29.0225 17.2206ZM23.538 15.9963C22.5562 17.0917 24.3505 18.316 25.0953 18.7026C26.6188 19.4759 29.8351 19.7981 30.8846 18.4771C31.4262 17.8005 31.1215 17.3172 30.9184 16.5762C32.171 16.6729 34.3039 17.3817 35.4211 17.8005C38.4681 18.9282 37.1139 19.2181 38.1634 19.3792C38.6712 19.4437 38.942 19.347 39.2467 19.1537C39.3483 18.1871 37.08 17.3495 36.1659 16.995C34.8794 16.4796 33.593 16.0285 32.171 15.7063C31.7648 15.6096 30.1397 15.4163 29.9366 15.2875C29.7335 15.1586 29.3611 14.6109 28.5147 14.0954C26.0771 12.6455 22.7594 12.2589 19.8478 12.2267C15.5482 12.1945 17.1733 13.4188 18.629 13.4188C20.4234 13.4188 21.9468 13.4188 23.6734 13.7088C24.4521 13.8376 25.1292 13.9665 25.8402 14.2243C27.0928 14.6431 26.9574 14.772 27.4991 14.9975C26.111 15.1908 24.3505 15.1264 23.538 15.9963Z" fill="white"/>
<path fill-rule="evenodd" clip-rule="evenodd" d="M19.3057 69.6078C21.6755 69.3179 22.0479 70.8644 20.0505 71.1543C17.9853 71.4443 16.665 69.93 19.3057 69.6078ZM19.4072 72.3464C20.7614 72.1209 22.5219 72.2498 23.3344 71.3476C24.6548 69.8656 20.9307 67.417 17.5791 68.0613C15.9879 68.3835 15.3785 69.189 15.9879 70.7355C14.9384 70.7355 11.2143 69.5434 10.0633 68.9312C9.58929 68.6735 9.55544 68.6735 9.35231 68.3835C8.81063 67.5458 6.64391 67.868 8.06582 69.0279C9.01376 69.8011 12.23 70.9288 13.4488 71.2832C14.8368 71.702 16.4619 71.8631 16.7327 71.9598C17.2744 72.1209 17.3759 73.1841 20.7614 74.2795C22.4542 74.8273 28.5142 75.7294 29.733 74.634C29.6314 73.7318 28.1757 73.9251 27.2277 73.9251C26.2121 73.9251 25.2303 73.8929 24.2146 73.7641C22.4542 73.5707 20.5583 73.2163 19.4072 72.3464Z" fill="white"/>
<path fill-rule="evenodd" clip-rule="evenodd" d="M63.6896 20.6679C64.4682 20.4746 71.6117 20.5391 73.2706 20.5713C73.8799 20.5713 76.0128 20.4746 76.3852 20.7324C76.4529 21.2157 76.1482 21.0868 74.9633 21.4412C74.1508 21.6989 70.2913 22.8588 69.9866 22.8588C69.5465 22.8588 67.2782 22.0856 66.6688 21.9245C66.1271 21.7634 65.5855 21.6023 65.0099 21.4412C63.9604 21.119 63.588 21.1512 63.6896 20.6679ZM59.2207 20.1847C59.4915 20.4102 65.924 22.2144 67.1766 22.5688C67.7522 22.7299 69.4111 23.3099 69.9189 23.3421C70.2913 23.3743 80.3463 20.4746 80.7187 20.2169C80.651 20.1847 80.6848 20.1847 80.5155 20.1524C80.0416 20.088 75.979 20.0236 75.4373 20.0236C73.3383 19.9591 60.7442 19.9913 59.2207 20.1847Z" fill="white"/>
<path fill-rule="evenodd" clip-rule="evenodd" d="M81.0231 43.1673C82.4789 42.4263 82.1065 46.4214 82.1065 47.2269C82.1065 48.2579 82.3773 51.512 81.5648 51.8342C80.0752 52.4463 80.4814 48.7089 80.4814 47.7746C80.4814 46.7436 80.1429 43.5862 81.0231 43.1673ZM83.2237 49.1922C83.4607 47.4846 83.4269 44.7461 82.4789 43.5217C81.9372 42.8129 80.9554 42.5552 80.2445 43.3284C78.8564 44.8105 79.0257 49.9655 80.0752 51.4153C80.9554 52.6396 82.7836 52.5107 83.2237 49.1922Z" fill="white"/>
<path fill-rule="evenodd" clip-rule="evenodd" d="M75.4375 50.5778C75.336 48.9669 75.4375 47.066 75.4375 45.3906C75.4375 44.714 75.4037 43.6186 75.8438 43.2319C76.6225 42.5231 77.0287 43.7474 77.0626 44.3918C77.1642 46.035 77.0626 47.9036 77.0626 49.579C77.0626 50.2556 77.1303 51.3833 76.6225 51.7377C75.8438 52.3176 75.4714 51.1899 75.4375 50.5778ZM74.2865 48.7735C74.6589 52.6076 76.5209 52.4465 77.2657 51.6732C78.5522 50.4167 78.6538 45.2617 77.5027 43.5541C76.9949 42.8131 75.9792 42.5553 75.2683 43.2642C74.2526 44.2629 74.1172 47.0982 74.2865 48.7735Z" fill="white"/>
<path fill-rule="evenodd" clip-rule="evenodd" d="M69.75 44.2951C69.75 43.1996 71.375 42.6519 71.849 43.5863C72.2553 44.3917 72.1199 46.1315 71.849 47.0014C71.5105 48.0002 71.0026 48.709 70.461 49.4823C70.1901 49.8689 69.9531 50.2233 69.6823 50.6099C69.3437 51.0932 69.1406 51.1898 69.1406 51.9309C69.5807 51.9953 72.7292 52.0275 73.1355 51.9309C73.2032 51.4476 73.4402 50.3844 73.2709 50.03C72.3907 50.3199 74.5913 51.0288 69.8177 50.8999C70.1901 50.0622 71.6797 48.6768 72.2891 47.8713C75.5392 43.4896 70.461 41.2987 69.3437 44.1018C68.4974 46.2282 71.0365 46.1637 70.6302 44.875C70.5287 44.4239 70.1224 44.4884 69.75 44.2951Z" fill="white"/>
<path fill-rule="evenodd" clip-rule="evenodd" d="M84.4766 47.0659C85.2214 47.0336 86.7449 45.8415 86.7449 49.5145C86.7449 52.6719 84.849 51.8986 84.5781 51.2543C84.5781 51.222 85.7969 50.4166 84.9505 49.8689C84.2396 49.3856 83.5963 50.0944 83.8333 50.8999C84.1719 52.0597 85.8646 52.4786 86.948 51.6087C88.4376 50.3844 88.1668 47.5491 86.6433 46.7759C86.1355 46.5181 85.2214 46.4859 84.7474 46.7759V44.3273C85.4245 44.1984 86.4063 44.3917 87.0157 44.2628C87.5235 44.1662 87.9637 43.3929 87.7267 42.8774C87.185 43.0708 87.9637 43.1996 86.1693 43.1996C84.2396 43.1674 84.4766 42.4586 84.4766 47.0659Z" fill="white"/>
<path fill-rule="evenodd" clip-rule="evenodd" d="M64.4684 21.0222L64.8408 21.151L65.5856 21.3444L69.919 22.5687L73.203 21.731L76.0806 20.8289L64.0621 20.8611L64.4684 21.0222Z" fill="white"/>
<path fill-rule="evenodd" clip-rule="evenodd" d="M107.058 28.5937C104.316 28.9803 105.196 32.4599 107.972 32.0089C110.545 31.5578 109.8 28.1748 107.058 28.5937Z" fill="white"/>
<path fill-rule="evenodd" clip-rule="evenodd" d="M53.3979 48.8379C53.2964 48.0968 53.1609 45.9704 54.075 46.0026C54.9553 46.0026 54.6844 48.1935 54.6506 48.8379H53.3979ZM55.7339 49.9333C55.4631 50.03 55.5308 50.2233 55.4631 50.5455C55.3277 51.1254 54.9214 51.9953 54.1089 51.7698C53.1948 51.512 53.3979 49.9977 53.3641 49.0634H55.8016C56.174 44.9394 52.4161 44.5528 52.1791 48.3546C52.0776 49.7722 52.3484 51.3831 53.3979 51.8986C54.3797 52.4141 55.3615 51.9309 55.6662 50.8354C55.7339 50.6421 55.8016 50.3199 55.8016 50.0944C55.7339 49.8044 55.8693 50.1266 55.7339 49.9333Z" fill="white"/>
<path fill-rule="evenodd" clip-rule="evenodd" d="M63.2835 50.9C63.2496 50.61 63.3512 50.9 63.2158 50.7066C62.7756 50.9644 63.1142 51.7376 62.3694 51.5766C62.3017 50.7067 62.3017 46.6793 62.3694 46.0672C62.4709 46.0672 63.0126 46.0672 63.0465 45.9705C63.0465 45.9383 63.0803 45.9383 63.1142 45.9383C62.9111 45.7772 63.148 45.8738 62.7756 45.8416C62.7079 45.8416 62.4709 45.8416 62.3355 45.8416V44.1663H61.2522C61.1167 44.6818 61.2183 45.2939 61.1845 45.8416C61.0829 45.8416 60.8798 45.8416 60.7782 45.8416L60.4396 45.9383C60.6428 46.0994 60.7782 46.0349 61.1845 46.0672C61.5569 49.0313 60.4058 52.3498 62.3355 52.0276C62.9449 51.9954 63.3173 51.2866 63.2835 50.9Z" fill="white"/>
<path fill-rule="evenodd" clip-rule="evenodd" d="M91.8229 49.2222H113.287L113.321 48.8057L91.8567 48.7737L91.8229 49.2222Z" fill="white"/>
<path fill-rule="evenodd" clip-rule="evenodd" d="M26.8215 49.2234H48.3195V48.8378L26.8554 48.8057L26.8215 49.2234Z" fill="white"/>
<path fill-rule="evenodd" clip-rule="evenodd" d="M57.1894 51.7697C57.7649 51.963 58.1035 52.2208 58.8822 52.0597C60.2364 51.7697 60.4733 49.901 58.7806 48.4834C58.442 48.1934 58.0358 47.8712 57.7649 47.5491C57.4603 47.2269 57.1894 46.5503 57.6295 46.1636C58.1035 45.7126 59.0514 46.0992 59.3223 47.0658C59.4238 47.4846 59.2884 47.5813 59.6947 47.6457V45.8737C59.1869 45.9703 59.5593 46.1959 58.8822 45.9059C58.0019 45.5515 57.1556 45.8415 56.8509 46.5503C56.3092 47.7746 57.4264 48.9022 57.9681 49.3211C60.9135 51.5442 57.7988 53.0585 57.1217 50.6098C56.8509 49.6755 57.1217 50.0299 56.817 49.901C56.6139 50.3199 56.7493 51.4797 56.7493 51.9952C57.2233 51.8664 56.8509 51.963 57.1894 51.7697Z" fill="white"/>
<path fill-rule="evenodd" clip-rule="evenodd" d="M64.0961 51.5765C64.367 52.4464 66.0597 52.1242 65.6196 51.0288C65.281 50.1589 63.7576 50.5133 64.0961 51.5765Z" fill="white"/>
<path fill-rule="evenodd" clip-rule="evenodd" d="M64.6717 12.2265C64.7733 11.9365 64.8072 11.2599 64.6717 10.9699C64.5025 10.5833 63.8592 10.68 63.7238 10.9055C63.5207 11.2599 63.5207 12.903 64.6717 12.2265Z" fill="white"/>
<path fill-rule="evenodd" clip-rule="evenodd" d="M65.721 7.20052C65.958 7.20052 66.2965 7.20052 66.4996 7.1683C66.9059 7.13608 66.8721 7.07165 66.8721 6.68502L66.2627 6.55615L66.2288 6.13731C66.6689 5.84734 66.8382 6.20174 66.7705 5.65403C66.4658 5.49293 66.0257 5.55737 65.6533 5.58959L65.721 7.20052Z" fill="white"/>
<path fill-rule="evenodd" clip-rule="evenodd" d="M54.1767 12.1623C54.5491 12.0656 54.6506 12.1623 54.6845 11.7434C54.4136 11.5501 54.0074 11.6468 53.6688 11.7434C53.5334 12.1301 53.7704 12.8389 53.8381 13.3222C54.4813 13.2899 54.9892 13.3222 54.8876 12.71L54.2444 12.5489L54.1767 12.1623Z" fill="white"/>
<path fill-rule="evenodd" clip-rule="evenodd" d="M60.6089 11.0024L60.7105 12.5489L61.7939 12.4523L61.8277 12.0979C61.3199 11.679 61.2183 12.3234 61.1506 11.4857C61.523 11.1635 61.6923 11.5501 61.6585 11.0024C61.3876 10.8413 60.8798 10.9058 60.6089 11.0024Z" fill="white"/>
<path fill-rule="evenodd" clip-rule="evenodd" d="M73.7448 11.4534C74.1849 11.4534 74.6928 11.5178 74.7266 11.0989C74.7605 10.6157 74.1511 10.6801 73.7787 10.6801L73.7448 11.4534Z" fill="white"/>
<path fill-rule="evenodd" clip-rule="evenodd" d="M67.4479 89.3257C66.9401 87.7148 66.4323 87.7792 66.3984 87.8759C66.3984 87.8759 67.2448 88.9391 67.4479 89.3257Z" fill="white"/>
<path fill-rule="evenodd" clip-rule="evenodd" d="M82.6487 12.42L83.292 12.5166L83.0889 11.6145L82.6487 12.42Z" fill="white"/>
<path fill-rule="evenodd" clip-rule="evenodd" d="M66.8046 90.2602C65.4504 89.1647 65.078 89.5191 65.078 89.6158C65.078 89.6158 66.3983 90.0346 66.8046 90.2602Z" fill="white"/>
<path fill-rule="evenodd" clip-rule="evenodd" d="M66.4997 91.6777C65.4502 91.7418 65.4502 92.0302 65.484 92.0622C65.5179 92.0622 66.2627 91.7418 66.4997 91.6777Z" fill="white"/>
<path fill-rule="evenodd" clip-rule="evenodd" d="M73.7784 89.6155C74.8956 88.3268 75.3357 88.5846 75.3357 88.6812C75.3357 88.649 74.117 89.3256 73.7784 89.6155Z" fill="white"/>
<path fill-rule="evenodd" clip-rule="evenodd" d="M74.4215 91.0968C75.6064 90.6479 75.8096 90.9686 75.7757 91.0327C75.7757 91.0327 74.7601 91.0327 74.4215 91.0968Z" fill="white"/>
<path fill-rule="evenodd" clip-rule="evenodd" d="M71.9502 89.0035L71.4085 88.9391L71.0361 88.8746L70.8668 88.8424L70.6975 88.8102L70.359 88.7135L69.8511 88.5847H69.8173H69.7834L69.7157 88.5524L69.648 88.5202V88.4558V88.3914V88.3269L70.1558 86.7482L70.1897 86.6193V86.5871L70.2235 86.5549L70.2913 86.4582V86.426H70.3251L70.4267 86.3615L70.5282 86.3293L70.6637 86.2649H70.6975H70.7314H70.8668L71.0699 86.2971C71.1376 86.2971 71.2053 86.3293 71.3069 86.3293H71.3408H71.3746C71.4423 86.3293 71.5439 86.3615 71.6116 86.3615L71.8147 86.3938L71.9502 86.426H71.984L72.0179 86.4582L72.1533 86.5549L72.221 86.6193L72.2887 86.716V86.7482V86.7804L72.3226 86.8771V86.9093V86.9415L72.2887 87.0704L72.1194 88.7135V88.778L72.0856 88.8424L72.0517 88.9069H71.984H71.9163L71.9502 89.0035ZM71.4423 88.6813L71.9163 88.7458L72.0856 87.1026V87.0059L72.0517 86.9415L72.0179 86.8771L71.9502 86.8126L71.8486 86.7482L71.747 86.716L71.5439 86.6837C71.4762 86.6837 71.4085 86.6515 71.3069 86.6515H71.2731H71.2392C71.1376 86.6193 71.0699 86.6193 71.0022 86.6193L70.8329 86.5871H70.7314L70.6298 86.6193L70.5621 86.6515L70.4944 86.6837L70.4605 86.7482L70.4267 86.8448L69.9188 88.4236L70.3928 88.5524L70.7314 88.6491L70.8668 88.6813L71.0022 88.7135L71.4423 88.6813Z" fill="white"/>
<path fill-rule="evenodd" clip-rule="evenodd" d="M70.4604 98.1859L70.4943 98.1536C70.4943 98.1536 70.5281 98.1214 70.5281 98.0892C70.7313 97.7348 71.036 97.026 71.3068 96.285C71.6792 95.2862 72.0516 94.1907 72.1871 93.6108C72.1871 93.5464 72.2209 93.4819 72.2209 93.4175C72.2209 93.3531 72.2548 93.3208 72.2548 93.2564C72.2886 93.0631 72.3563 92.7731 72.3902 92.4831C72.5256 91.8065 72.661 90.9689 72.898 90.55H72.8642C72.8303 90.55 72.8303 90.5178 72.7964 90.5178C72.7626 90.4856 72.7287 90.4856 72.6949 90.4534C72.5595 90.26 72.5256 90.099 72.5256 89.9056C72.4917 89.6801 72.4917 89.4546 71.8485 89.0035L71.8146 88.9713L71.3407 88.9069L70.9683 88.8424L70.8667 88.8102L70.7651 88.778L70.4266 88.6813L69.9526 88.5525H69.9188C69.1401 88.7136 69.0385 88.9069 68.9031 89.1324C68.8354 89.2613 68.7338 89.4224 68.5307 89.5512C68.4968 89.5835 68.463 89.5835 68.4291 89.5835C68.3953 89.5835 68.3953 89.5835 68.3614 89.5835H68.3276C68.3614 90.0667 68.1583 90.8722 67.989 91.5488C67.9213 91.8388 67.8536 92.0965 67.8197 92.322C67.8197 92.3865 67.7859 92.4187 67.7859 92.4831C67.7859 92.5476 67.752 92.612 67.752 92.6765C67.6505 93.2564 67.5489 94.4163 67.4812 95.4795C67.4473 96.285 67.4135 97.026 67.4812 97.4448C67.4812 97.4771 67.4812 97.477 67.4812 97.5093C67.4812 97.5415 67.4812 97.5415 67.5151 97.5737C67.5489 97.6704 67.7182 97.7992 67.9213 97.8637C68.0567 97.9281 68.1922 97.9603 68.3614 98.0248C68.7 98.1214 68.8354 96.285 68.9031 96.285C69.0047 96.3172 68.5646 98.0892 68.9031 98.1536L69.0724 98.1859C69.6141 98.2825 70.0203 95.0929 70.1219 95.0929C70.325 95.1251 69.2755 98.2503 69.9526 98.2503C70.1896 98.2825 70.3589 98.2503 70.4604 98.1859ZM70.7313 98.2825C70.6974 98.3147 70.6974 98.3147 70.6636 98.347C70.5282 98.4758 70.2573 98.5403 69.9865 98.5403C69.6479 98.5403 69.2755 98.508 68.9031 98.4436C68.5307 98.3792 68.1583 98.2825 67.8536 98.1536C67.5828 98.0248 67.3796 97.8959 67.2781 97.7026C67.2781 97.6704 67.2442 97.6381 67.2442 97.6059C67.2442 97.5737 67.2442 97.5415 67.2104 97.5093C67.1426 97.0904 67.1765 96.3172 67.2104 95.5117C67.2781 94.4485 67.3796 93.2886 67.4812 92.6765C67.4812 92.612 67.5151 92.5476 67.5151 92.4831C67.5151 92.4509 67.5489 92.3865 67.5489 92.3543C67.5828 92.161 67.6505 91.871 67.7182 91.581C67.8875 90.9044 68.0906 90.099 68.0229 89.6801C67.989 89.6157 67.989 89.5512 68.0906 89.4868C68.1244 89.4868 68.1244 89.4546 68.1583 89.4546C68.1921 89.4546 68.1922 89.4546 68.1922 89.4546C68.226 89.4546 68.2599 89.4546 68.2937 89.4546H68.3276H68.3614C68.5307 89.3579 68.5984 89.229 68.6661 89.1324C68.8015 88.8746 68.9708 88.6169 69.851 88.4236H69.8849H69.9188H69.9526L70.4604 88.5525L70.799 88.6491L70.9006 88.6813L71.0021 88.7136L71.3407 88.778L71.8485 88.8424H71.8823L71.9162 88.8746L71.9501 88.9069C72.6949 89.4224 72.7287 89.7123 72.7626 90.0023C72.7626 90.1312 72.7964 90.26 72.898 90.4211C72.898 90.4211 72.898 90.4211 72.9319 90.4211L72.9657 90.4534C72.9996 90.4534 72.9996 90.4856 73.0334 90.4856C73.0334 90.4856 73.0673 90.4856 73.0673 90.5178C73.1011 90.5178 73.1011 90.55 73.1011 90.5822C73.1688 90.7111 73.135 90.7433 73.0673 90.7755C72.8641 91.1622 72.6949 91.9676 72.5933 92.6442C72.5256 92.9342 72.4917 93.2242 72.4579 93.4175C72.4579 93.4497 72.424 93.5141 72.424 93.5464C72.424 93.6108 72.3902 93.6752 72.3902 93.7397C72.2209 94.3196 71.8824 95.4473 71.51 96.446C71.2391 97.2193 70.9344 97.9281 70.6974 98.3147C70.7651 98.2503 70.7313 98.2825 70.7313 98.2825Z" fill="white"/>
<path fill-rule="evenodd" clip-rule="evenodd" d="M68.3957 89.519C68.3957 89.519 67.8879 89.5835 68.1926 89.7446C68.565 89.9379 69.2082 90.1312 69.9192 90.2923C69.953 90.2923 69.7499 91.5488 69.7838 91.5488C69.8176 91.5488 70.0885 90.3245 70.1562 90.3245C70.3932 90.3889 70.6301 90.4212 70.8333 90.4534C70.8671 90.4534 70.7317 92.2254 70.7317 92.2254C70.7656 92.2254 70.9348 90.4534 70.9348 90.4856C71.7135 90.6145 72.4583 90.7111 72.9661 90.7111C73.2708 90.7111 72.8984 90.4856 72.8646 90.4534C72.7969 90.4534 72.763 90.4534 72.6953 90.4534C71.9166 90.4212 69.1405 89.8735 68.3618 89.5513C68.3957 89.5835 68.4296 89.519 68.3957 89.519Z" fill="white"/>
<path fill-rule="evenodd" clip-rule="evenodd" d="M72.1194 89.0357C71.9162 89.1646 71.4423 89.1968 70.9006 89.1002C70.2573 89.0035 69.7834 88.7458 69.7495 88.5202C69.7834 88.5202 69.8172 88.5202 69.8511 88.488C69.8849 88.488 69.8849 88.488 69.9188 88.4558L70.3928 88.5847L70.7652 88.6813L71.2053 88.778L71.5438 88.8424L71.9162 88.9069H71.984C71.984 88.9069 71.984 88.9391 72.0178 88.9391C72.0517 88.9391 72.0517 88.9713 72.0855 88.9713C72.0855 89.0035 72.1194 89.0357 72.1194 89.0357Z" fill="white"/>
<path fill-rule="evenodd" clip-rule="evenodd" d="M71.6121 88.5202C71.7136 88.3913 71.8829 87.3603 71.9168 87.1026C71.9506 86.8126 71.3412 86.6515 71.2397 87.0381C71.172 87.3603 70.935 88.0691 70.9011 88.3591C70.9011 88.488 71.5444 88.6491 71.6121 88.5202Z" fill="white"/>
</svg>
