<svg width="16" height="16" viewBox="0 0 16 16" fill="none" xmlns="http://www.w3.org/2000/svg">
<path d="M12.3857 8.66513C12.3076 8.58689 12.2148 8.52481 12.1127 8.48246C12.0105 8.44011 11.9011 8.41831 11.7905 8.41831C11.6799 8.41831 11.5705 8.44011 11.4683 8.48246C11.3662 8.52481 11.2734 8.58689 11.1953 8.66513L9.85337 10.007C9.23124 9.82181 8.0703 9.40089 7.33451 8.66513C6.59872 7.92937 6.17779 6.76849 5.99258 6.14637L7.33451 4.8045C7.41276 4.72638 7.47484 4.63361 7.51719 4.53149C7.55955 4.42936 7.58135 4.31988 7.58135 4.20932C7.58135 4.09876 7.55955 3.98929 7.51719 3.88716C7.47484 3.78503 7.41276 3.69226 7.33451 3.61415L3.96705 0.246826C3.88894 0.168581 3.79616 0.106506 3.69403 0.0641532C3.5919 0.0218001 3.48242 0 3.37185 0C3.26129 0 3.15181 0.0218001 3.04968 0.0641532C2.94755 0.106506 2.85477 0.168581 2.77665 0.246826L0.493515 2.52987C0.173607 2.84977 -0.00655262 3.2892 0.000182301 3.7379C0.0195452 4.93666 0.336929 9.10036 3.61852 12.3818C6.90011 15.6633 11.064 15.9798 12.2636 16H12.2872C12.7317 16 13.1518 15.8249 13.47 15.5067L15.7532 13.2236C15.8314 13.1455 15.8935 13.0528 15.9358 12.9506C15.9782 12.8485 16 12.739 16 12.6285C16 12.5179 15.9782 12.4084 15.9358 12.3063C15.8935 12.2042 15.8314 12.1114 15.7532 12.0333L12.3857 8.66513ZM12.2788 14.3155C11.2281 14.2978 7.63337 14.0158 4.80892 11.1906C1.9752 8.35702 1.70075 4.74978 1.68391 3.72022L3.37185 2.03235L5.54892 4.20932L4.46038 5.29781C4.36143 5.39668 4.28868 5.51865 4.2487 5.6527C4.20872 5.78674 4.20277 5.92864 4.2314 6.06556C4.2516 6.16237 4.74578 8.45804 6.14327 9.85548C7.54077 11.2529 9.83654 11.7471 9.93335 11.7673C10.0702 11.7967 10.2122 11.7912 10.3464 11.7514C10.4806 11.7115 10.6026 11.6385 10.7011 11.5391L11.7905 10.4507L13.9676 12.6276L12.2788 14.3155Z" fill="white"/>
</svg>
