<svg width="48" height="48" viewBox="0 0 48 48" fill="none" xmlns="http://www.w3.org/2000/svg">
<path d="M41.5119 10.69C41.3238 10.4736 41.0915 10.3001 40.8307 10.181C40.5699 10.062 40.2866 10.0003 39.9999 10H12.3619L11.9719 7.672C11.8942 7.205 11.6535 6.78068 11.2924 6.47452C10.9313 6.16836 10.4733 6.00022 9.99988 6H5.49988C4.96944 6 4.46074 6.21071 4.08566 6.58579C3.71059 6.96086 3.49988 7.46957 3.49988 8C3.49988 8.53043 3.71059 9.03914 4.08566 9.41421C4.46074 9.78929 4.96944 10 5.49988 10H8.30588L12.0259 32.328L12.1159 32.576L12.2239 32.878L12.4639 33.236L12.6539 33.46L13.0399 33.72L13.2639 33.85C13.4965 33.9472 13.7458 33.9982 13.9979 34H35.9999C36.5303 34 37.039 33.7893 37.4141 33.4142C37.7892 33.0391 37.9999 32.5304 37.9999 32C37.9999 31.4696 37.7892 30.9609 37.4141 30.5858C37.039 30.2107 36.5303 30 35.9999 30H15.6939L15.3619 28H37.9999C38.4812 28.0001 38.9463 27.8266 39.31 27.5114C39.6737 27.1962 39.9115 26.7604 39.9799 26.284L41.9799 12.284C42.0204 12.0003 41.9996 11.7112 41.9188 11.4362C41.8381 11.1612 41.6993 10.9068 41.5119 10.69ZM37.6939 14L37.1239 18H29.9999V14H37.6939ZM27.9999 14V18H21.9999V14H27.9999ZM27.9999 20V24H21.9999V20H27.9999ZM19.9999 14V18H13.9999L13.7039 18.06L13.0279 14H19.9999ZM14.0279 20H19.9999V24H14.6939L14.0279 20ZM29.9999 24V20H36.8359L36.2659 24H29.9999Z" fill="white"/>
<path d="M16.9999 42C18.6567 42 19.9999 40.6569 19.9999 39C19.9999 37.3431 18.6567 36 16.9999 36C15.343 36 13.9999 37.3431 13.9999 39C13.9999 40.6569 15.343 42 16.9999 42Z" fill="white"/>
<path d="M34.9999 42C36.6567 42 37.9999 40.6569 37.9999 39C37.9999 37.3431 36.6567 36 34.9999 36C33.343 36 31.9999 37.3431 31.9999 39C31.9999 40.6569 33.343 42 34.9999 42Z" fill="white"/>
</svg>
